<svg xmlns="http://www.w3.org/2000/svg" xmlns:xlink="http://www.w3.org/1999/xlink" viewBox="0 0 120.79 106.28"><defs><style>.cls-1{fill:url(#Dégradé_sans_nom_13);}.cls-2{fill:#00d27d;}.cls-3{fill:url(#Dégradé_sans_nom_30);}.cls-4{fill:url(#Dégradé_sans_nom_9);}.cls-5{fill:url(#Dégradé_sans_nom_45);}.cls-6{fill:url(#Dégradé_sans_nom_45-2);}</style><linearGradient id="Dégradé_sans_nom_13" x1="2645.13" y1="51.83" x2="2761.45" y2="51.83" gradientTransform="matrix(-1, 0, 0, 1, 2761.45, 0)" gradientUnits="userSpaceOnUse"><stop offset="0" stop-color="#00f747"/><stop offset="1" stop-color="#00d27d"/></linearGradient><linearGradient id="Dégradé_sans_nom_30" x1="2643.57" y1="51.84" x2="2662.58" y2="39.5" gradientTransform="matrix(-1, 0, 0, 1, 2761.45, 0)" gradientUnits="userSpaceOnUse"><stop offset="0" stop-color="#00ec5b"/><stop offset="0.07" stop-color="#00ed59"/><stop offset="0.55" stop-color="#00f54b"/><stop offset="1" stop-color="#00f747"/></linearGradient><linearGradient id="Dégradé_sans_nom_9" x1="2683.75" y1="89.07" x2="2737.33" y2="79.62" gradientTransform="matrix(-1, 0, 0, 1, 2761.45, 0)" gradientUnits="userSpaceOnUse"><stop offset="0" stop-color="#00f747"/><stop offset="0.12" stop-color="#2ff869"/><stop offset="0.3" stop-color="#6dfa96"/><stop offset="0.48" stop-color="#a1fcbb"/><stop offset="0.64" stop-color="#cafdd9"/><stop offset="0.78" stop-color="#e7feee"/><stop offset="0.91" stop-color="#f9fffa"/><stop offset="1" stop-color="#fff"/></linearGradient><linearGradient id="Dégradé_sans_nom_45" x1="86.12" y1="55.38" x2="71.5" y2="17.28" gradientUnits="userSpaceOnUse"><stop offset="0" stop-color="#00ec5b"/><stop offset="1" stop-color="#00c58c"/></linearGradient><linearGradient id="Dégradé_sans_nom_45-2" x1="42.13" y1="60.04" x2="49.46" y2="60.04" xlink:href="#Dégradé_sans_nom_45"/></defs><g id="Layer_2" data-name="Layer 2"><g id="Calque_1" data-name="Calque 1"><path class="cls-1" d="M20.14,102.23s-25.75-8.38-19-39.45c0,0,7.8-36.75,62.74-51.64,0,0,42.89-12.21,52.46-11.06,0,0-2.13,15-45.55,26,0,0-26.36,14.36-28.64,16.13A20.18,20.18,0,0,0,38,47.37l-1.46,3.37-21.8-4.33L37.8,56.79,25,74.45S22.18,80.89,32.39,82l21.47-6.38,3,.59L60.78,88,58,98.43l-19.8,3.8-13.66,1.43Z"/><path class="cls-2" d="M102.6,93s24.32-25.85,16.72-45.87c0,0-14.62,18.78-20.43,20.64Z"/><path class="cls-3" d="M119.32,47.17s-17.14,6-19,7.36c0,0,18.35-7.89,16-32.3,0,0-14.17,26.43-26.39,31,0,0,7.84,10,8.51,14.56C98.44,67.82,114.82,63.57,119.32,47.17Z"/><path class="cls-4" d="M20.14,102.23s30.58,2.3,36.13-9.36-2.41-17.26-2.41-17.26,8-2.57,7.88-8.22c0,0,.32-2.29-3-6.2,0,0,12.07,3.23,15,8a23.15,23.15,0,0,0,1.41,2.09c2.78,3.59,10,16.3-8.94,28C43.81,113.08,20.14,102.23,20.14,102.23Z"/><path class="cls-5" d="M89.93,53.87s12.67-2.74,26.39-31.64c0,0-15.74,12.07-23.39,12.92,0,0,22.46-9.5,23.39-35.07,0,0-73.48,33.27-83.7,49.89l9,1.78s2.86-6.88,6.87-5.18l-2.89-5.2s4.28-2.56,14-.94L61,45.83l1-5.24s2.84-1.36,13,2.81l-2,5.34,4.23-4.34S86.79,48.4,89.93,53.87Z"/><path class="cls-6" d="M49.46,57.85l-6.57,4.93a3,3,0,0,1,.58-4.45A6.3,6.3,0,0,1,49.46,57.85Z"/></g></g></svg>