<svg id="Calque_1" data-name="Calque 1" xmlns="http://www.w3.org/2000/svg" xmlns:xlink="http://www.w3.org/1999/xlink" viewBox="0 0 425.2 425.2"><defs><style>.cls-1{fill:url(#Dégradé_sans_nom_13);}.cls-2{fill:#00d27d;}.cls-3{fill:url(#Dégradé_sans_nom_30);}.cls-4{fill:url(#Dégradé_sans_nom_9);}.cls-5{fill:url(#Dégradé_sans_nom_45);}.cls-6{fill:#fff;}.cls-7{fill:url(#Dégradé_sans_nom_45-2);}.cls-8{fill:url(#Dégradé_sans_nom_45-3);}.cls-9{fill:url(#Dégradé_sans_nom_45-4);}.cls-10{fill:url(#Dégradé_sans_nom_45-5);}.cls-11{fill:url(#Dégradé_sans_nom_45-6);}.cls-12{fill:url(#Dégradé_sans_nom_45-7);}.cls-13{fill:url(#Dégradé_sans_nom_45-8);}.cls-14{fill:url(#Dégradé_sans_nom_45-9);}.cls-15{fill:url(#Dégradé_sans_nom_45-10);}.cls-16{fill:url(#Dégradé_sans_nom_45-11);}.cls-17{fill:none;stroke-miterlimit:10;stroke:url(#Dégradé_sans_nom_45-12);}</style><linearGradient id="Dégradé_sans_nom_13" x1="1216.42" y1="176.48" x2="1610.95" y2="176.48" gradientTransform="matrix(-1, 0, 0, 1, 1618.7, 0)" gradientUnits="userSpaceOnUse"><stop offset="0" stop-color="#00f747"/><stop offset="1" stop-color="#00d27d"/></linearGradient><linearGradient id="Dégradé_sans_nom_30" x1="1211.52" y1="177.32" x2="1275.16" y2="135.99" gradientTransform="matrix(-1, 0, 0, 1, 1618.7, 0)" gradientUnits="userSpaceOnUse"><stop offset="0" stop-color="#00ec5b"/><stop offset="0.07" stop-color="#00ed59"/><stop offset="0.55" stop-color="#00f54b"/><stop offset="1" stop-color="#00f747"/></linearGradient><linearGradient id="Dégradé_sans_nom_9" x1="1347.41" y1="302.8" x2="1529.14" y2="270.75" gradientTransform="matrix(-1, 0, 0, 1, 1618.7, 0)" gradientUnits="userSpaceOnUse"><stop offset="0" stop-color="#00f747"/><stop offset="0.12" stop-color="#2ff869"/><stop offset="0.3" stop-color="#6dfa96"/><stop offset="0.48" stop-color="#a1fcbb"/><stop offset="0.64" stop-color="#cafdd9"/><stop offset="0.78" stop-color="#e7feee"/><stop offset="0.91" stop-color="#f9fffa"/><stop offset="1" stop-color="#fff"/></linearGradient><linearGradient id="Dégradé_sans_nom_45" x1="299.86" y1="188.52" x2="250.26" y2="59.31" gradientUnits="userSpaceOnUse"><stop offset="0" stop-color="#00ec5b"/><stop offset="1" stop-color="#00c58c"/></linearGradient><linearGradient id="Dégradé_sans_nom_45-2" x1="150.66" y1="204.34" x2="175.51" y2="204.34" xlink:href="#Dégradé_sans_nom_45"/><linearGradient id="Dégradé_sans_nom_45-3" x1="80.08" y1="404.75" x2="113.56" y2="404.75" xlink:href="#Dégradé_sans_nom_45"/><linearGradient id="Dégradé_sans_nom_45-4" x1="121.61" y1="404.21" x2="159.99" y2="404.21" xlink:href="#Dégradé_sans_nom_45"/><linearGradient id="Dégradé_sans_nom_45-5" x1="168.05" y1="404.21" x2="178.04" y2="404.21" xlink:href="#Dégradé_sans_nom_45"/><linearGradient id="Dégradé_sans_nom_45-6" x1="184.36" y1="404.21" x2="213.76" y2="404.21" xlink:href="#Dégradé_sans_nom_45"/><linearGradient id="Dégradé_sans_nom_45-7" x1="220.08" y1="404.21" x2="252.04" y2="404.21" xlink:href="#Dégradé_sans_nom_45"/><linearGradient id="Dégradé_sans_nom_45-8" x1="249.65" y1="404.21" x2="287.72" y2="404.21" xlink:href="#Dégradé_sans_nom_45"/><linearGradient id="Dégradé_sans_nom_45-9" x1="291.24" y1="404.21" x2="320.49" y2="404.21" xlink:href="#Dégradé_sans_nom_45"/><linearGradient id="Dégradé_sans_nom_45-10" x1="322.17" y1="404.21" x2="348.58" y2="404.21" xlink:href="#Dégradé_sans_nom_45"/><linearGradient id="Dégradé_sans_nom_45-11" x1="359.98" y1="381.16" x2="369.01" y2="381.16" xlink:href="#Dégradé_sans_nom_45"/><linearGradient id="Dégradé_sans_nom_45-12" x1="356.6" y1="381.16" x2="373.85" y2="381.16" xlink:href="#Dégradé_sans_nom_45"/></defs><path class="cls-1" d="M76.08,347.43S-11.28,319,11.57,213.62c0,0,26.44-124.64,212.78-175.13,0,0,145.49-41.41,177.93-37.54,0,0-7.22,50.87-154.49,88.08,0,0-89.42,48.71-97.13,54.74s-14.07,17.61-14.07,17.61l-5,11.41L57.68,158.12,136,193.32,92.54,253.21S83,275.05,117.6,278.79l72.84-21.64,10.15,2,13.3,39.91-9.46,35.47-67.13,12.9L91,352.27Z"/><path class="cls-2" d="M355.75,316.25s82.47-87.66,56.7-155.58c0,0-49.6,63.71-69.27,70Z"/><path class="cls-3" d="M412.45,160.67s-58.13,22.43-64.59,27c0,0,62.26-28.83,54.42-111.61,0,0-48.07,91.7-89.52,107.3,0,0,26.61,34,28.87,49.39C341.63,232.79,397.2,216.32,412.45,160.67Z"/><path class="cls-4" d="M76.05,347.42s103.73,7.82,122.57-31.75-8.18-58.52-8.18-58.52,27.14-8.74,26.72-27.89c0,0,1.08-7.76-10.16-21,0,0,41,10.94,50.72,27.25a80.31,80.31,0,0,0,4.79,7.06c9.42,12.19,33.8,55.29-30.33,94.87C156.34,384.23,76.05,347.42,76.05,347.42Z"/><path class="cls-5" d="M312.76,183.4s43-9.28,89.52-107.3c0,0-53.39,40.94-79.32,43.83,0,0,76.16-32.22,79.32-119,0,0-249.21,112.85-283.88,169.22l30.41,6s9.71-23.33,23.29-17.56L162.3,141s14.53-8.68,47.38-3.17l4.83,18.3,3.4-17.76s9.64-4.63,44.09,9.54L255.1,166l14.36-14.7S302.12,164.87,312.76,183.4Z"/><path class="cls-6" d="M352,279.66s-2.77-41.17-14.65-63.11c-1.14-2.09-2.24-4.19-3.51-6.2-6.57-10.42-22.67-41.24-64.39-59h0L255.1,166h0l6.9-18.08h0c-.11,0-33.9-12.83-44.09-9.54h0s-3.34,17.44-3.4,17.76h0l-4.83-18.29h0c-.05,0-23.39-3.73-47.38,3.17h0l9.8,17.65s0,.1,0,.09c-1.31-.36-13.6-3.07-23.24,17.47h0L57.69,158.12h0L136,193.32h0c-.11.15-42.45,56.27-43.43,59.89,0,0-11.28,23.17,25.06,25.58,0,0,19.36-1.29,72.84-21.64,0,0,46.79-14.71,16.56-48.91,0,0,37.92,12.21,50.64,30,.71,1,1.33,2.06,2.09,3,5.29,6.65,24.07,34.09,3.72,66.37l-.11.18c-1.43,2.76-40.14,74.32-187.26,39.62,0,0,0,0,0,0l79.21,40.29h0l207-8h0Z"/><path class="cls-7" d="M175.51,196.9l-22.3,16.72s-6.88-8.2,2-15.08A21.37,21.37,0,0,1,175.51,196.9Z"/><path class="cls-8" d="M90.07,385v20.9c0,1.12,0,2.26.12,3.44a9.4,9.4,0,0,0,.77,3.18,5.23,5.23,0,0,0,2,2.32,7.06,7.06,0,0,0,3.87.89,6.92,6.92,0,0,0,3.85-.89,5.59,5.59,0,0,0,2-2.32,9.18,9.18,0,0,0,.79-3.18c.08-1.18.12-2.32.12-3.44V385h9.94v22.27q0,9-4.1,13.1T96.84,424.5q-8.5,0-12.64-4.13t-4.12-13.1V385Z"/><path class="cls-9" d="M121.61,423.43V385h10l18.45,23.5V385H160v38.43h-9.93l-18.45-23.5v23.5Z"/><path class="cls-10" d="M178,385v38.43h-10V385Z"/><path class="cls-11" d="M213.76,397.84a10.65,10.65,0,0,0-8.56-4.23,10.35,10.35,0,0,0-4.15.82,10.08,10.08,0,0,0-3.29,2.21,10.31,10.31,0,0,0-2.17,3.34,11.59,11.59,0,0,0,0,8.41,10.22,10.22,0,0,0,9.56,6.43,11.55,11.55,0,0,0,8.61-4.08v11.82l-1,.36a30.15,30.15,0,0,1-4.28,1.2,21.07,21.07,0,0,1-3.92.38,19.83,19.83,0,0,1-7.62-1.5,20.14,20.14,0,0,1-6.42-4.23,21.08,21.08,0,0,1-4.46-6.48A20.8,20.8,0,0,1,186,396a20.28,20.28,0,0,1,18.58-12.05,21.26,21.26,0,0,1,4.51.48,27.91,27.91,0,0,1,4.66,1.51Z"/><path class="cls-12" d="M252,423.43H239.61l-9.54-14.78v14.78h-10V385h15.55a15.26,15.26,0,0,1,5.61.94,10.57,10.57,0,0,1,6.29,6.35,13,13,0,0,1,.79,4.58,11.24,11.24,0,0,1-2.11,7.11,10.69,10.69,0,0,1-6.25,3.7Zm-22-21.25H232A7.28,7.28,0,0,0,236.5,401a4.7,4.7,0,0,0,0-7A7.28,7.28,0,0,0,232,392.7h-1.89Z"/><path class="cls-13" d="M263.66,405l-14-20h11.92l7.14,10.5,7.08-10.5h11.93l-14.07,20v18.45h-10Z"/><path class="cls-14" d="M301.23,423.43h-10V385h15.9q6.47,0,9.91,3.36t3.44,9.48q0,6.12-3.44,9.48t-9.91,3.37h-5.91Zm0-20.8h3.31c3.67,0,5.5-1.59,5.5-4.79s-1.83-4.79-5.5-4.79h-3.31Z"/><path class="cls-15" d="M340.37,393.46v30h-10v-30h-8.21V385h26.41v8.46Z"/><path class="cls-16" d="M369,379.15a3.76,3.76,0,0,0-2.11-.71,3,3,0,0,0-1.08.2,2.85,2.85,0,0,0-.87.57,2.59,2.59,0,0,0-.59.86,2.9,2.9,0,0,0-.21,1.12,2.8,2.8,0,0,0,.21,1.1,2.71,2.71,0,0,0,.58.87,2.46,2.46,0,0,0,.87.56,2.82,2.82,0,0,0,1.09.2,3.39,3.39,0,0,0,2.11-.77v3.41a7.11,7.11,0,0,1-2.82.64,6.63,6.63,0,0,1-2.36-.42,5.9,5.9,0,0,1-3.34-3.09,5.74,5.74,0,0,1-.51-2.45,6,6,0,0,1,.49-2.47,5.84,5.84,0,0,1,1.33-1.93,6.16,6.16,0,0,1,2-1.27,6.89,6.89,0,0,1,2.5-.45,6,6,0,0,1,2.71.62Z"/><circle class="cls-17" cx="365.22" cy="381.16" r="8.13"/></svg>