<?xml version="1.0" encoding="utf-8"?>
<!-- Generator: Adobe Illustrator 24.1.2, SVG Export Plug-In . SVG Version: 6.00 Build 0)  -->
<svg version="1.1" id="Layer_1" xmlns="http://www.w3.org/2000/svg" xmlns:xlink="http://www.w3.org/1999/xlink" x="0px" y="0px"
	 viewBox="0 0 1200 1200" style="enable-background:new 0 0 1200 1200;" xml:space="preserve">
<style type="text/css">
	.st0{fill:#FFFFFF;}
</style>
<circle class="st0" cx="600" cy="600" r="590"/>
<g transform="translate(0.000000,1200.000000) scale(0.100000,-0.100000)">
	<path d="M5916.4,10130.9c-23-43.8-38-66.8-34.6-51.8c10.4,35.7-3.5,32.2-48.4-17.3c-114-123.2-203.8-210.8-215.4-211.9
		c-6.9-1.2-70.3-1.2-141.7,1.2l-129,2.3l-55.3-50.7c-29.9-28.8-140.5-130.1-244.2-225.7c-102.5-96.7-191.2-175.1-195.8-175.1
		c-4.6,0-25.3,24.2-47.2,55.3l-38,54.1l44.9-49.5l44.9-49.5l87.5,118.6c167,228,223.4,313.3,199.2,304
		c-11.5-5.8-119.8-40.3-240.7-78.3c-119.8-38-223.4-73.7-229.2-79.5c-6.9-5.8,3.5-31.1,26.5-64.5c27.6-41.5,29.9-46.1,6.9-20.7
		c-16.1,19.6-38,48.4-48.4,65.6c-21.9,35.7-347.8,262.6-376.6,262.6c-10.4,0-125.5-50.7-255.7-111.7
		c-194.6-91-232.6-112.9-210.8-119.8c15-4.6,61-16.1,102.5-27.6c135.9-35.7,153.2-43.8,162.4-78.3c4.6-17.3,2.3-69.1-6.9-115.2
		l-15-82.9l-1.2,69.1c-1.2,79.5-12.7,71.4-42.6-27.6l-17.3-62.2l-66.8,73.7c-36.9,40.3-82.9,92.1-102.5,114l-35.7,40.3l-1.2-210.8
		v-209.6l-88.7,44.9c-49.5,24.2-123.2,58.7-164.7,76c-215.4,89.8-529.8,240.7-526.3,252.2c3.5,8.1-33.4,33.4-81.8,58.7
		c-249.9,131.3-423.8,226.9-444.5,246.5c-13.8,11.5-91,56.4-173.9,99c-81.8,42.6-172.8,91-200.4,106c-27.6,15-54.1,26.5-61,24.2
		c-5.8-2.3,89.8-67.9,210.8-147.4c122.1-79.5,226.9-149.7,233.8-155.5c24.2-21.9,127.8-95.6,286.8-200.4
		c87.5-57.6,155.5-110.6,152-115.2c-3.5-5.8,70.3-64.5,163.5-131.3c172.8-122.1,306.3-203.8,516-314.4
		c88.7-47.2,108.3-62.2,84.1-62.2c-18.4,0-32.2-4.6-32.2-11.5c0-15,41.5-15,71.4,1.2c19.6,10.4,23,10.4,18.4-2.3
		c-40.3-99-114-293.7-130.1-342l-19.6-61l31.1-71.4c17.3-39.2,59.9-131.3,94.4-203.8c48.4-103.7,65.6-155.5,78.3-236.1
		c41.5-266,50.7-327.1,62.2-397.3c8.1-41.5,33.4-201.5,58.7-357c34.6-209.6,50.7-286.8,65.6-301.7c27.6-26.5,315.6-205,324.8-200.4
		c42.6,20.7,301.7,184.3,309.8,194.6c8.1,9.2,8.1,99,0,261.4l-10.4,247.6l43.8,82.9c36.9,71.4,50.7,85.2,89.8,101.3
		c25.3,9.2,78.3,46.1,118.6,81.8s76,61,80.6,57.6c9.2-10.4,12.7-20.7,232.6-677.2c95.6-283.3,172.8-527.5,172.8-542.4
		c0-24.2-88.7-342-97.9-351.3c-2.3-2.3-82.9,35.7-178.5,84.1c-96.7,48.4-177.4,85.2-179.7,84.1c-2.3-2.3,74.9-44.9,171.6-94.4
		c96.7-49.5,178.5-93.3,183.1-97.9c4.6-3.5,24.2-89.8,43.8-191.2s38-194.6,41.5-207.3c4.6-18.4,3.5-19.6-5.8-5.8
		c-6.9,9.2-12.7,26.5-12.7,38c0,12.7-9.2,29.9-21.9,40.3c-25.3,23-358.2,434.2-382.4,472.2c-18.4,29.9-36.9,33.4-28.8,5.8
		c3.5-11.5,11.5-80.6,18.4-153.2s19.6-202.7,28.8-287.9s23-222.3,29.9-305.2c16.1-172.8,23-139.4-127.8-570.1
		c-79.5-228-267.2-769.3-311-898.3c-34.6-106-46.1-150.9-63.3-253.4c-12.7-78.3-74.9-445.7-104.8-613.8
		c-2.3-17.3-31.1-86.4-62.2-152c-126.7-267.2-175.1-367.4-286.8-597.7c-63.3-132.4-116.3-244.2-116.3-248.8
		c0-3.5-95.6-101.3-211.9-216.5c-116.3-115.2-208.5-211.9-203.8-214.2c12.7-6.9,129-27.6,243-42.6c89.8-11.5,154.3-10.4,357,4.6
		c135.9,9.2,255.7,20.7,266,25.3c13.8,4.6,21.9,28.8,26.5,78.3c4.6,39.2,16.1,100.2,24.2,134.7c9.2,34.6,35.7,161.2,58.7,282.2
		c27.6,142.8,64.5,287.9,108.3,420.4c286.8,876.4,268.3,810.8,292.5,1094.1l16.1,190l130.1,190c71.4,104.8,149.7,218.8,173.9,253.4
		c34.6,48.4,108.3,111.7,312.1,268.3l267.2,205l80.6-5.8c44.9-3.5,205-12.7,357-19.6s279.9-16.1,284.5-19.6
		c8.1-9.2,145.1-324.8,187.7-434.2c15-38,62.2-152,103.7-253.4c42.6-101.3,80.6-196.9,86.4-213.1c10.4-31.1,72.6-203.8,184.3-512.5
		c39.2-107.1,76-208.5,80.6-224.6c5.8-16.1,26.5-72.6,46.1-126.7c88.7-238.4,161.2-453.8,161.2-476.8c0-13.8-28.8-85.2-64.5-157.8
		c-67.9-137-203.8-437.6-216.5-479.1c-5.8-19.6-2.3-24.2,25.3-28.8c49.5-6.9,475.6,21.9,486,33.4c12.7,11.5,33.4,410,36.9,694.5
		l2.3,213.1l-35.7,74.9c-18.4,41.5-46.1,101.3-61,132.4c-13.8,32.2-51.8,115.2-82.9,184.3c-32.2,70.3-72.6,160.1-92.1,201.5
		c-99,215.4-206.2,464.1-201.5,467.6c2.3,3.5,38-66.8,78.3-155.5c40.3-88.7,73.7-160.1,74.9-158.9c1.2,1.2,5.8,145.1,9.2,319
		c5.8,252.2,3.5,345.5-10.4,454.9c-10.4,76-23,177.4-28.8,224.6c-5.8,47.2-16.1,119.8-21.9,161.2c-6.9,40.3-10.4,74.9-9.2,74.9
		c3.5,1.2,367.4-13.8,578.1-24.2l195.8-9.2l-92.1-10.4c-50.7-5.8-94.4-11.5-95.6-13.8c-2.3-2.3,10.4-18.4,29.9-36.9
		c18.4-17.3,77.2-78.3,129-135.9c195.8-211.9,401.9-414.6,552.8-544.7c418.1-360.5,587.4-512.5,587.4-527.5
		c0-10.4,5.8-13.8,11.5-10.4c6.9,3.5,11.5,20.7,11.5,38s8.1,82.9,19.6,147.4c10.4,63.3,16.1,123.2,11.5,132.4s-72.6,103.7-152,211.9
		c-135.9,183.1-144,196.9-137,236.1c15,79.5,19.6,77.2,129-62.2c58.7-73.7,109.4-133.6,114-133.6c5.8,0,16.1,4.6,25.3,10.4
		c12.7,8.1-6.9,53-89.8,211.9c-101.3,193.5-107.1,202.7-142.8,206.1l-36.9,3.5l-6.9,80.6c-4.6,64.5-13.8,94.4-46.1,149.7l-40.3,69.1
		l-188.9,36.9c-184.3,34.6-192.3,35.7-264.9,18.4c-112.9-25.3-111.7-25.3-92.1-39.2c12.7-9.2,8.1-10.4-17.3-5.8
		c-18.4,3.5-64.5,0-100.2-9.2c-36.9-8.1-63.3-11.5-61-5.8c11.5,18.4,222.3,79.5,311,91c50.7,5.8,134.7,20.7,185.4,31.1l93.3,19.6
		l188.9-131.3c103.7-71.4,190-131.3,192.3-132.4c1.2-1.2,23-61,48.4-133.6c24.2-72.6,77.2-222.3,116.3-332.8
		c38-110.6,72.6-211.9,76-224.6c2.3-12.7-11.5-91-31.1-172.8c-19.6-82.9-50.7-214.2-70.3-293.7c-18.4-79.5-42.6-177.4-51.8-218.8
		c-10.4-41.5-25.3-103.7-34.5-139.4c-20.7-80.6-20.7-91,1.2-91c9.2,0,17.3-2.3,17.3-4.6c0-4.6-172.8-359.3-366.2-755.5
		c-51.8-103.7-91-191.2-88.7-193.5c4.6-5.8,602.3,20.7,623.1,26.5c9.2,2.3,6.9,34.6-8.1,106c-46.1,224.6-137,701.4-135.9,711.7
		c1.2,15,58.7-190,100.2-357c31.1-125.5,31.1-126.7,34.5-66.8l3.5,58.7l111.7,6.9c61,4.6,134.7,11.5,162.4,16.1l49.5,8.1l-1.2,161.2
		c-2.3,274.1-8.1,309.8-65.6,414.6l-51.8,91l21.9,53c12.7,28.8,74.9,172.8,139.4,321.3c63.3,147.4,116.3,275.3,116.3,284.5
		c0,8.1-28.8,47.2-63.3,87.5l-64.5,72.6l8.1,293.7l8.1,293.7l69.1,138.2l69.1,138.2l-9.2,316.7c-10.4,334-10.4,345.5-5.8,454.9
		c2.3,59.9-5.8,88.7-56.4,217.7c-33.4,81.8-57.6,149.7-55.3,153.2c3.5,2.3,19.6-33.4,36.9-79.5c17.3-46.1,40.3-99,50.7-118.6
		c33.4-59.9,50.7-129,42.6-168.1c-9.2-47.2,5.8-291.4,16.1-278.7c16.1,17.3,162.4,339.7,169.3,372c5.8,32.2-48.4,138.2-327.1,639.2
		c-24.2,44.9-62.2,115.2-84.1,157.8c-21.9,42.6-41.5,74.9-42.6,73.7c-3.5-3.5,70.3-223.4,192.3-580.4c38-111.7,42.6-160.1,5.8-63.3
		c-11.5,31.1-40.3,96.7-63.3,147.4s-64.5,141.7-92.1,201.5c-167,372-224.6,486-246.5,496.4c-25.3,10.4-282.2,56.4-308.7,55.3
		c-8.1,0,35.7-26.5,99-57.6c62.2-32.2,110.6-59.9,108.3-62.2c-2.3-3.5-54.1,13.8-112.9,35.7c-59.9,23-165.8,62.2-236.1,86.4
		c-69.1,24.2-185.4,64.5-255.7,89.8c-71.4,25.3-130.1,43.8-130.1,42.6c0-2.3,41.5-29.9,91-63.3c49.5-32.2,94.4-66.8,97.9-77.2
		c3.5-9.2,11.5-13.8,18.4-10.4c5.8,3.5,11.5,2.3,11.5-4.6c0-5.8,89.8-82.9,199.2-170.4c149.7-120.9,231.5-177.4,334-231.5
		c76-39.2,142.8-67.9,148.6-63.3c6.9,3.5,9.2,1.2,4.6-5.8c-3.5-6.9,3.5-16.1,17.3-19.6c38-12.7,125.5-67.9,125.5-79.5
		c0-4.6-11.5-6.9-26.5-2.3c-39.2,9.2-1247.3,211.9-1309.5,218.8c-28.8,3.5-188.9,21.9-357,41.5c-168.1,18.4-324.8,36.9-349,40.3
		c-44.9,5.8-214.2,152-937.5,805l-153.2,137v67.9c0,36.9,1.2,66.8,3.5,66.8c2.3,0,20.7-26.5,41.5-57.6
		c28.8-44.9,73.7-84.1,188.9-165.8c217.7-153.2,271.8-191.2,277.6-191.2c2.3,0,0,21.9-5.8,49.5c-5.8,26.5-17.3,92.1-26.5,146.3
		c-9.2,54.1-29.9,165.8-46.1,248.8l-28.8,150.9l-140.5,233.8c-139.4,231.5-147.4,252.2-95.6,253.4c13.8,0,155.5,41.5,203.8,59.9
		c17.3,6.9,31.1,17.3,31.1,24.2c0,5.8-50.7,87.5-111.7,180.8L6551,8960.8l-190-132.4c-104.8-72.6-211.9-148.6-236.1-168.1
		c-86.4-66.8-34.6-9.2,96.7,108.3c82.9,74.9,155.5,129,194.6,146.3c33.4,15,70.3,39.2,81.8,53c19.6,24.2,19.6,26.5-47.2,107.1
		c-38,44.9-79.5,92.1-92.1,103.7l-24.2,21.9l17.3-42.6c9.2-23,27.6-51.8,39.2-63.3c11.5-12.7,38-42.6,58.7-66.8
		c36.9-42.6,38-44.9,16.1-53c-12.7-4.6-33.4-10.4-44.9-12.7c-11.5-2.3-32.2-16.1-46.1-32.2c-15-16.1-26.5-26.5-27.6-23
		c-17.3,114-26.5,263.7-20.7,337.4c4.6,51.8,11.5,148.6,15,215.4l8.1,120.9l-154.3-154.3l-155.5-154.3l-123.2,9.2
		c-140.5,9.2-144,8.1-144-71.4v-48.4l-65.6-12.7c-36.9-6.9-85.2-18.4-107.1-24.2c-21.9-5.8-48.4-10.4-58.7-10.4
		c-16.1,0-155.5,203.8-146.3,213.1c2.3,2.3,78.3-5.8,170.4-17.3c232.6-31.1,211.9-34.6,241.9,49.5c13.8,39.2,64.5,170.4,111.7,290.2
		c47.2,120.9,99,252.2,114,293.7c16.1,41.5,43.8,110.6,62.2,154.3c19.6,43.8,32.2,81.8,28.8,85.2c-6.9,8.1-97.9,24.2-134.7,25.3
		C5961.3,10208.1,5952.1,10197.7,5916.4,10130.9z M7060,6226.7c40.3-87.5,41.5-94.4,50.7-291.4c10.4-229.2,23-362.8,56.4-590.8
		c12.7-87.5,20.7-172.8,18.4-190c-3.5-26.5-4.6-25.3-6.9,9.2c-1.2,21.9-17.3,115.2-36.9,207.3c-19.6,92.1-34.6,191.2-33.4,220
		c2.3,84.1-33.4,358.2-70.3,543.6C6992.1,6369.5,6993.2,6373,7060,6226.7z M5678,5348c39.2-18.4,73.7-34.6,76-34.6
		c2.3,0,57.6-25.3,123.2-56.4c65.6-31.1,187.7-85.2,269.5-122.1c82.9-35.7,182-80.6,222.3-97.9l71.4-33.4v26.5
		c0,13.8,10.4,69.1,24.2,120.9c13.8,54.1,20.7,110.6,17.3,130.1c-3.5,20.7-2.3,31.1,4.6,26.5c6.9-3.5,11.5-11.5,11.5-16.1
		c0-5.8,76-167,168.1-359.3c92.1-192.3,183.1-381.2,200.4-419.2c17.3-38,70.3-147.4,117.5-244.2c47.2-96.7,82.9-172.8,78.3-170.4
		c-3.5,2.3-38,49.5-74.9,106c-38,55.3-89.8,131.3-117.5,169.3c-27.6,36.9-46.1,71.4-42.6,77.2s1.2,10.4-4.6,10.4
		c-10.4,0-167,218.8-312.1,435.3c-26.5,40.3-59.9,77.2-73.7,81.8c-13.8,5.8-96.7,44.9-185.4,86.4c-87.5,41.5-160.1,76-162.4,76
		s-62.2,27.6-133.6,62.2c-346.7,162.4-340.9,160.1-347.8,141.7c-3.5-8.1-4.6-2.3-4.6,12.7c1.2,13.8,2.3,25.3,2.3,25.3
		C5606.6,5382.5,5638.9,5367.6,5678,5348z"/>
	<path d="M5436.2,9291.3c-3.5-3.5,15-36.9,40.3-76l48.4-69.1l51.8,6.9c28.8,3.5,78.3,13.8,109.4,21.9c53,12.7,57.6,16.1,57.6,47.2
		c0,34.6,0,34.6-115.2,54.1C5507.6,9298.2,5446.5,9302.9,5436.2,9291.3z"/>
</g>
</svg>
