<svg xmlns="http://www.w3.org/2000/svg" xmlns:xlink="http://www.w3.org/1999/xlink" viewBox="0 0 169.31 169.31"><defs><style>.cls-1,.cls-2{fill:none;}.cls-2{stroke:#fff;stroke-miterlimit:10;stroke-width:7px;}.cls-3{clip-path:url(#clip-path);}.cls-4{fill:#fff;}.cls-5{fill:#1d1d1b;}.cls-6{clip-path:url(#clip-path-2);}.cls-7{fill:url(#linear-gradient);}</style><clipPath id="clip-path"><circle class="cls-1" cx="84.66" cy="84.66" r="81.15"/></clipPath><clipPath id="clip-path-2"><circle class="cls-2" cx="84.66" cy="84.66" r="81.15"/></clipPath><linearGradient id="linear-gradient" x1="-2109.72" y1="133.76" x2="-2011.05" y2="116.36" gradientTransform="translate(2154.11)" gradientUnits="userSpaceOnUse"><stop offset="0" stop-color="#b1b1b1"/><stop offset="0.15" stop-color="#c1c1c1"/><stop offset="0.51" stop-color="#e3e3e3"/><stop offset="0.8" stop-color="#f8f8f8"/><stop offset="1" stop-color="#fff"/></linearGradient></defs><g id="Layer_2" data-name="Layer 2"><g id="Calque_1" data-name="Calque 1"><circle class="cls-1" cx="84.66" cy="84.66" r="81.15" transform="translate(-3.19 166) rotate(-87.8)"/><g class="cls-3"><path class="cls-4" d="M50.05,137.25l-.06-.11c-10.6-18.5-.82-34.24,1.94-38,.4-.56.72-1.16,1.09-1.74,6.63-10.19,26.39-17.2,26.39-17.2-15.75,19.62,8.64,28.05,8.64,28.05,27.87,11.67,38,12.41,38,12.41,18.94-1.38,13.06-14.67,13.06-14.67-.51-2.07-22.64-34.33-22.64-34.34h0l37.08-18.34-43.77,8.53h0c-5-11.77-11.43-10.23-12.12-10a0,0,0,0,1,0-.05l5.11-10.12h0A58,58,0,0,0,78,39.78h0L75.5,50.27h0s-1.76-10.17-1.77-10.19h0c-5.31-1.89-22.93,5.45-23,5.47h0l3.6,10.37h0L46.86,47.5h0C25.11,57.72,16.72,75.39,13.29,81.37c-.66,1.15-1.23,2.35-1.82,3.55C8.3,91.35,6.38,100.64,5.25,108.2c.18.44.36.88.55,1.31,1.12,2.64,2.4,5.2,3.49,7.86a61.47,61.47,0,0,0,4.27,8.26,88.75,88.75,0,0,0,4.89,7.42,82.1,82.1,0,0,0,11.83,12.82,64,64,0,0,0,6.92,5.22c2.44,1.57,5.07,2.79,7.54,4.3,4.49,2.75,8.64,6.21,13.62,8.05a207.84,207.84,0,0,0,27.32,3.39c9.91.58,20,1.74,29.9.89,8.71-.74,19.5-2.26,25-4.9C76.67,172.18,50.74,138.72,50.05,137.25Z"/></g><path class="cls-5" d="M93.3,79.56,104.61,88s3.49-4.16-1-7.65A10.82,10.82,0,0,0,93.3,79.56Z"/><g class="cls-6"><path class="cls-7" d="M150.73,159.85S94.24,164.33,84,141.68s4.4-33.28,4.4-33.28S75,104.28,74.4,92.24c0,0-1.1-4.49,5-12.09,0,0-22.3,6.27-27.62,15.61a44.8,44.8,0,0,1-2.6,4c-5.13,7-18.41,31.67,16.51,54.33C107,180.93,150.73,159.85,150.73,159.85Z"/></g><circle class="cls-2" cx="84.66" cy="84.66" r="81.15"/></g></g></svg>