<svg xmlns="http://www.w3.org/2000/svg" xmlns:xlink="http://www.w3.org/1999/xlink" viewBox="0 0 234.65 234.65"><defs><style>.cls-1,.cls-2{fill:none;}.cls-2{stroke-miterlimit:10;stroke-width:7px;stroke:url(#Dégradé_sans_nom_11);}.cls-3{fill:#fff;}.cls-4{clip-path:url(#clip-path);}.cls-5{fill:url(#Dégradé_sans_nom_45);}.cls-6{clip-path:url(#clip-path-2);}.cls-7{fill:url(#Dégradé_sans_nom_81);}</style><linearGradient id="Dégradé_sans_nom_11" y1="117.33" x2="234.65" y2="117.33" gradientTransform="translate(234.65 234.65) rotate(180)" gradientUnits="userSpaceOnUse"><stop offset="0" stop-color="#00c58c"/><stop offset="0.59" stop-color="#00de6c"/><stop offset="1" stop-color="#00ec5b"/></linearGradient><clipPath id="clip-path"><circle class="cls-1" cx="117.33" cy="117.33" r="113.83"/></clipPath><linearGradient id="Dégradé_sans_nom_45" x1="18.7" y1="143.91" x2="233.31" y2="143.91" gradientUnits="userSpaceOnUse"><stop offset="0" stop-color="#00ec5b"/><stop offset="1" stop-color="#00c58c"/></linearGradient><clipPath id="clip-path-2"><circle class="cls-2" cx="117.33" cy="117.33" r="113.83"/></clipPath><linearGradient id="Dégradé_sans_nom_81" x1="-87.38" y1="186.14" x2="50.67" y2="161.79" gradientTransform="matrix(-1, 0, 0, 1, 86.08, 0)" gradientUnits="userSpaceOnUse"><stop offset="0" stop-color="#00ed5b"/><stop offset="0.02" stop-color="#08ee60"/><stop offset="0.13" stop-color="#41f285"/><stop offset="0.25" stop-color="#74f5a6"/><stop offset="0.37" stop-color="#9ff8c1"/><stop offset="0.49" stop-color="#c1fbd7"/><stop offset="0.62" stop-color="#dcfde9"/><stop offset="0.74" stop-color="#f0fef5"/><stop offset="0.87" stop-color="#fbfffd"/><stop offset="1" stop-color="#fff"/></linearGradient></defs><g id="Layer_2" data-name="Layer 2"><g id="Calque_1" data-name="Calque 1"><circle class="cls-3" cx="117.33" cy="117.33" r="113.83"/><g class="cls-4"><path class="cls-5" d="M72.75,99s-31,45.26-31.76,48.17c0,0-8.25,18.64,18.32,20.58,0,0,14.16-1,53.26-17.41,0,0,34.21-11.83,12.11-39.34,0,0,27.72,9.82,37,24.12.52.81,1,1.66,1.53,2.43,3.86,5.35,17.59,27.43,2.72,53.38,0,.06-.06.1-.08.15-1,2.07-37.35,49-127,35.86l-.26.06c-.87.32-.16-.26.26-.06,7.75,3.71,22.88,5.84,35.09,6.88,13.89,1.2,28-.44,41.94-1.25a290.85,290.85,0,0,0,41.51-5.37,236.25,236.25,0,0,0,40.34-11.89c12.38-5,23.78-12.37,35.57-18.76l-2.61-28.11s-2-33.11-10.72-50.75c-.83-1.68-1.63-3.37-2.56-5-4.81-8.38-16.58-33.17-47.08-47.5h0L159.84,77h0l5-14.54h0c-.08,0-24.79-10.32-32.24-7.68h0s-2.47,14.24-2.48,14.29h0l-3.53-14.72h0s-17.1-3-34.64,2.55h0l7.17,14.2s0,.08,0,.07c-1-.29-9.94-2.46-17,14h0L18.7,72l2.36,1.43L72.75,99Z"/></g><path class="cls-3" d="M105.2,110.18,89.34,122.07s-4.9-5.83,1.4-10.73A15.21,15.21,0,0,1,105.2,110.18Z"/><g class="cls-6"><path class="cls-7" d="M24.65,222.8s79.24,6.28,93.63-25.5-6.17-46.67-6.17-46.67,18.76-5.78,19.6-22.67c0,0,1.55-6.3-7-16.95,0,0,29.74,9.8,38.74,21.89a57.49,57.49,0,0,1,3.66,5.67c5.91,10.61,25.82,44.41-23.17,76.2C86,252.36,24.65,222.8,24.65,222.8Z"/></g><circle class="cls-2" cx="117.33" cy="117.33" r="113.83"/></g></g></svg>