<svg id="Layer_1" data-name="Layer 1" xmlns="http://www.w3.org/2000/svg" viewBox="0 0 328.99 329"><defs><style>.cls-1{fill:#1d1d1b;}</style></defs><path class="cls-1" d="M166.17,168c6.47,11.39-8,14.92-14.79,15.57-10.29,1-12.42-4.93-10.41-12.38a13.39,13.39,0,0,1,11.57-10.1A14.35,14.35,0,0,1,166.17,168Z"/><path class="cls-1" d="M206.56,146.94c-7.52,57.52,93.86,45.55,91.93,91.33,10-13,14.3-48.32-15.14-66.5C257.12,155.56,222.94,164.43,206.56,146.94Z"/><path class="cls-1" d="M265,125.25c-.66-.61-1.34-1.21-2-1.81C263.64,124.05,264.31,124.69,265,125.25Z"/><path class="cls-1" d="M288.51,167.15l-.06-.09a38.72,38.72,0,0,0-3.12-4.87,25.15,25.15,0,0,0-13.89-9.4A59.43,59.43,0,0,0,260.12,151c-3.87-.28-7.82-.44-11.81-.65a109.76,109.76,0,0,1-24.19-3.54c-2-.57-4-1.19-5.93-1.94-1-.36-1.93-.75-2.92-1.17s-2-.9-3-1.41a50.52,50.52,0,0,1-10.37-7.53c-6.16-5.73-11-12.23-15.85-18.53A219.33,219.33,0,0,0,171.35,98a67,67,0,0,0-18-14.06,62.12,62.12,0,0,0-22.41-6.4,53,53,0,0,1,23.94,2.92,63.47,63.47,0,0,1,20.77,13.19,125.74,125.74,0,0,1,11,11.73c25.4-5,46-.56,61.83,8.06l.36.18a77.69,77.69,0,0,1,14.08,9.78c.69.6,1.37,1.2,2,1.81a93.45,93.45,0,0,1,9.39,10l.22.29C283.88,147.38,288.5,159.69,288.51,167.15Z"/><path class="cls-1" d="M288.51,167.15l-.06-.12Z"/><path class="cls-1" d="M132.23,85c6.48.94,13.09,3.52,17.35,8.44s5.83,11.32,7.06,17.41c1,4.72,1.79,9.53,3.65,14,.9,2.18,2.22,4.09,3.32,6.15.91,1.71,2.57,3.25,3.21,5.08a1.71,1.71,0,0,1,.12.84,1.61,1.61,0,0,1-.31.78c-2.26,2.5-8.36-.28-10.66-1.4a34.64,34.64,0,0,1-10.49-8c-9.23-10.25-14-25-13.71-38.43A41.79,41.79,0,0,1,132.23,85Z"/><path class="cls-1" d="M240.62,200.59c-14,39.07,49.5,65.28,25.71,105,24.41-10.08,36-40.53,25.87-64.69C283.34,219.69,257.14,212,240.62,200.59Z"/><path class="cls-1" d="M156.63,251.69A55.14,55.14,0,0,1,169,244.64a72.53,72.53,0,0,1,13.86-4c9.41-1.79,18.72-2.23,26.54-5.38a34,34,0,0,0,10.49-6.5,25.67,25.67,0,0,0,6.64-10,31.11,31.11,0,0,0,1.7-12.55,46.33,46.33,0,0,0-3.07-13.33A30.58,30.58,0,0,1,233,220.63a29,29,0,0,1-7.63,13.75,35.48,35.48,0,0,1-13.16,8.2,55.77,55.77,0,0,1-14.61,3c-4.8.4-9.44.51-14,.78a90.24,90.24,0,0,0-27,5.33Z"/><path class="cls-1" d="M246.21,320.36c-1.41,1.12-2.82,2.31-4.37,3.35a37.11,37.11,0,0,1-4.89,2.72A25.44,25.44,0,0,1,225.61,329c-10.64-.2-18.16-8.12-22.56-17.07-3-6.1-5.07-12.69-8.63-18.5-5.09-8.31-13.8-15-24-13.76-4.16.52-8.06,2.39-10.37,6-6.08,9.43,2.65,22.64,13.78,20.77a12.16,12.16,0,0,0,2.76-.76,10.23,10.23,0,0,0,2.45-1.49,11.2,11.2,0,0,0,3.39-4.9,11.5,11.5,0,0,0,.47-6.23,8.6,8.6,0,0,0-3.58-5.33,9.12,9.12,0,0,1,4.65,5,13.14,13.14,0,0,1,.65,7.13,14.18,14.18,0,0,1-3.18,6.74,14,14,0,0,1-3,2.55,16.06,16.06,0,0,1-3.53,1.67,17.45,17.45,0,0,1-7.82.81,20.83,20.83,0,0,1-10.1-4.38c-3.44-2.72-6-6.28-9.11-9.34a43.38,43.38,0,0,0-12.42-9.07,46.16,46.16,0,0,0-10-3.1c-1.73-.36-3.48-.62-5.23-.84-.8-.08-4.72-.95-5.27-.44a109.43,109.43,0,0,1,17.6-13.2,85.61,85.61,0,0,1,20.64-8.83,59,59,0,0,1,23.09-1.77,45.25,45.25,0,0,1,11.6,3,36.54,36.54,0,0,1,10.62,6.56,33.17,33.17,0,0,1,7.38,10.29,54,54,0,0,1,3.56,11.31c2.28,11.63,1.44,29.66,16.67,32.32a23.9,23.9,0,0,0,2.4.34l2.49.06a36.49,36.49,0,0,0,5.09-.73,54.81,54.81,0,0,0,10.11-3.45Z"/><path class="cls-1" d="M157.71,307.69l-.4-.31Z"/><path class="cls-1" d="M144,143.55a17,17,0,0,1-2.85,5.89,23,23,0,0,1-9.48,7.25,36.61,36.61,0,0,1-10.57,2.78c-.79.1-1.61.16-2.4.22a10.81,10.81,0,0,0-10,8,25.89,25.89,0,0,0-.61,3.37c-.36,2.94-.42,6-.74,9.7A57.71,57.71,0,0,1,102,198.88c-3.62,7.62-7.68,13.76-6.74,22.54.62,5.7,3.54,9.52,7.42,13.46,7,7.16,22.67,10.36,19.17,28-2.11,10.53-19.57,21.58-44.11,25.44,2.44-.37-3.13-9.76-3.48-10.36-2.63-4.12-5.51-8-7.6-12.47-4.1-8.67-6-18.7-4.32-28.2,1.77-10,9.17-17.66,15.32-25.3,7.32-9.09,15-21,16.7-32.8.4-2.86.68-6.44,1.32-10a37.44,37.44,0,0,1,3.66-11.32,23.1,23.1,0,0,1,4.82-6.21,6.22,6.22,0,0,0,1.2-7.56L66.21,73.74l56.19,69.34a7,7,0,0,0,8.31,2,7,7,0,0,0,2.45-1.81h0a4.76,4.76,0,0,0,.15-6c-3.67-4.69-7.55-9.47-11.31-14.17l-14.14-17.5L79.48,70.7,22.55.92,83.12,67.57,113.33,101l15.07,16.74c5,5.63,10,11.08,15,17l.82,1,.18,1.55a18.48,18.48,0,0,1-.36,6.29Z"/><path class="cls-1" d="M157,307.21a37.67,37.67,0,0,1-7.18-7.31,64.37,64.37,0,0,0,7.18,7.31Z"/></svg>