<svg xmlns="http://www.w3.org/2000/svg" xmlns:xlink="http://www.w3.org/1999/xlink" viewBox="0 0 203.89 179.4"><defs><style>.cls-1{fill:#fff;}.cls-2{fill:url(#Dégradé_sans_nom_32);}.cls-3{fill:url(#Dégradé_sans_nom_28);}.cls-4{fill:url(#Dégradé_sans_nom_17);}.cls-5{fill:url(#Dégradé_sans_nom_22);}</style><linearGradient id="Dégradé_sans_nom_32" x1="3205.59" y1="128.04" x2="3230.26" y2="106.58" gradientTransform="matrix(-1, 0, 0, 1, 3404.05, 0)" gradientUnits="userSpaceOnUse"><stop offset="0" stop-color="#fff"/><stop offset="0.3" stop-color="#fcfcfc"/><stop offset="0.51" stop-color="#f3f3f3"/><stop offset="0.68" stop-color="#e4e4e4"/><stop offset="0.84" stop-color="#cecece"/><stop offset="0.99" stop-color="#b3b3b3"/><stop offset="1" stop-color="#b1b1b1"/></linearGradient><linearGradient id="Dégradé_sans_nom_28" x1="3204.76" y1="86.42" x2="3238.87" y2="66.72" gradientTransform="matrix(-1, 0, 0, 1, 3404.05, 0)" gradientUnits="userSpaceOnUse"><stop offset="0" stop-color="#fff"/><stop offset="0.27" stop-color="#fcfcfc"/><stop offset="0.45" stop-color="#f4f4f4"/><stop offset="0.59" stop-color="#e5e5e5"/><stop offset="0.72" stop-color="#d0d0d0"/><stop offset="0.85" stop-color="#b5b5b5"/><stop offset="0.96" stop-color="#949494"/><stop offset="1" stop-color="#868686"/></linearGradient><linearGradient id="Dégradé_sans_nom_17" x1="3272.9" y1="150.35" x2="3363.34" y2="134.4" gradientTransform="matrix(-1, 0, 0, 1, 3404.05, 0)" gradientUnits="userSpaceOnUse"><stop offset="0" stop-color="#fff"/><stop offset="0.15" stop-color="#f0f0f0"/><stop offset="0.44" stop-color="#c9c9c8"/><stop offset="0.84" stop-color="#8a8a89"/><stop offset="1" stop-color="#6f6f6e"/></linearGradient><linearGradient id="Dégradé_sans_nom_22" x1="145.38" y1="93.48" x2="120.69" y2="29.17" gradientUnits="userSpaceOnUse"><stop offset="0" stop-color="#fff"/><stop offset="0.34" stop-color="#fdfdfd"/><stop offset="0.51" stop-color="#f5f5f5"/><stop offset="0.64" stop-color="#e8e8e8"/><stop offset="0.75" stop-color="#d6d6d6"/><stop offset="0.85" stop-color="#bdbdbd"/><stop offset="0.94" stop-color="#a0a0a0"/><stop offset="1" stop-color="#868686"/></linearGradient></defs><g id="Layer_2" data-name="Layer 2"><g id="Calque_1" data-name="Calque 1"><path class="cls-1" d="M34,172.56S-9.47,158.43,1.9,106c0,0,13.16-62,105.89-87.16,0,0,72.41-20.61,88.56-18.68,0,0-3.6,25.31-76.89,43.83,0,0-44.5,24.24-48.34,27.24s-7,8.77-7,8.77l-2.48,5.68-36.79-7.3,39,17.51L42.19,125.67s-4.75,10.87,12.48,12.73l36.25-10.77,5,1,6.62,19.86-4.71,17.65-33.41,6.42L41.4,175Z"/><path class="cls-2" d="M173.19,157.05s41-43.63,28.22-77.43c0,0-24.68,31.7-34.48,34.85Z"/><path class="cls-3" d="M201.41,79.62s-28.93,10.13-32.14,12.43c0,0,31-13.33,27.08-54.52,0,0-23.93,44.61-44.55,52.37,0,0,13.24,16.92,14.36,24.58C166.16,114.48,193.82,107.31,201.41,79.62Z"/><path class="cls-4" d="M34,172.56s51.62,3.89,61-15.8-4.07-29.13-4.07-29.13,13.5-4.35,13.3-13.88c0,0,.53-3.86-5.06-10.46,0,0,20.38,5.45,25.24,13.56a38.19,38.19,0,0,0,2.39,3.52c4.68,6.06,16.82,27.51-15.1,47.21C74,190.88,34,172.56,34,172.56Z"/><path class="cls-1" d="M83.49,97.65,72.39,106s-3.43-4.08,1-7.51A10.65,10.65,0,0,1,83.49,97.65Z"/><path class="cls-5" d="M151.8,90.93s21.39-4.62,44.55-53.4c0,0-26.57,20.37-39.48,21.81,0,0,37.9-16,39.48-59.21,0,0-124,56.16-141.29,84.21l15.14,3S75,75.74,81.79,78.61l-4.88-8.78s7.23-4.32,23.58-1.58l2.41,9.11,1.69-8.84s4.8-2.31,21.94,4.75l-3.43,9L130.24,75S146.5,81.71,151.8,90.93Z"/></g></g></svg>