<?xml version="1.0" encoding="utf-8"?>
<!-- Generator: Adobe Illustrator 24.1.2, SVG Export Plug-In . SVG Version: 6.00 Build 0)  -->
<svg version="1.1" xmlns="http://www.w3.org/2000/svg" xmlns:xlink="http://www.w3.org/1999/xlink" x="0px" y="0px"
	 viewBox="0 0 142.3 142.3" style="enable-background:new 0 0 142.3 142.3;" xml:space="preserve">
<style type="text/css">
	.st0{fill-rule:evenodd;clip-rule:evenodd;fill:url(#SVGID_1_);}
	.st1{fill-rule:evenodd;clip-rule:evenodd;fill:url(#SVGID_2_);}
	.st2{fill-rule:evenodd;clip-rule:evenodd;fill:url(#SVGID_3_);}
	.st3{opacity:0.4;}
	.st4{fill-rule:evenodd;clip-rule:evenodd;fill:#B9BFE2;}
	.st5{fill-rule:evenodd;clip-rule:evenodd;fill:url(#SVGID_4_);}
	.st6{fill-rule:evenodd;clip-rule:evenodd;fill:url(#SVGID_5_);}
	.st7{fill-rule:evenodd;clip-rule:evenodd;fill:url(#SVGID_6_);}
	.st8{fill-rule:evenodd;clip-rule:evenodd;fill:url(#SVGID_7_);}
	.st9{fill-rule:evenodd;clip-rule:evenodd;fill:url(#SVGID_8_);}
	.st10{fill-rule:evenodd;clip-rule:evenodd;fill:url(#SVGID_9_);}
	.st11{fill-rule:evenodd;clip-rule:evenodd;fill:url(#SVGID_10_);}
	.st12{fill-rule:evenodd;clip-rule:evenodd;fill:#004A59;}
	.st13{fill-rule:evenodd;clip-rule:evenodd;fill:url(#SVGID_11_);}
	.st14{fill-rule:evenodd;clip-rule:evenodd;fill:url(#SVGID_12_);}
	.st15{fill-rule:evenodd;clip-rule:evenodd;fill:#00777A;}
	.st16{fill-rule:evenodd;clip-rule:evenodd;fill:url(#SVGID_13_);}
	.st17{fill-rule:evenodd;clip-rule:evenodd;fill:#006D7A;}
	.st18{fill-rule:evenodd;clip-rule:evenodd;fill:url(#SVGID_14_);}
	.st19{fill-rule:evenodd;clip-rule:evenodd;fill:url(#SVGID_15_);}
	.st20{fill-rule:evenodd;clip-rule:evenodd;fill:url(#SVGID_16_);}
	.st21{fill-rule:evenodd;clip-rule:evenodd;fill:url(#SVGID_17_);}
	.st22{fill-rule:evenodd;clip-rule:evenodd;fill:url(#SVGID_18_);}
	.st23{fill-rule:evenodd;clip-rule:evenodd;fill:url(#SVGID_19_);}
	.st24{fill-rule:evenodd;clip-rule:evenodd;fill:url(#SVGID_20_);}
	.st25{fill-rule:evenodd;clip-rule:evenodd;fill:url(#SVGID_21_);}
	.st26{fill-rule:evenodd;clip-rule:evenodd;fill:url(#SVGID_22_);}
	.st27{fill-rule:evenodd;clip-rule:evenodd;fill:url(#SVGID_23_);}
	.st28{fill-rule:evenodd;clip-rule:evenodd;fill:url(#SVGID_24_);}
	.st29{fill-rule:evenodd;clip-rule:evenodd;fill:url(#SVGID_25_);}
	.st30{fill-rule:evenodd;clip-rule:evenodd;fill:url(#SVGID_26_);}
	.st31{fill-rule:evenodd;clip-rule:evenodd;fill:url(#SVGID_27_);}
	.st32{fill-rule:evenodd;clip-rule:evenodd;fill:url(#SVGID_28_);}
	.st33{fill-rule:evenodd;clip-rule:evenodd;fill:url(#SVGID_29_);}
	.st34{fill-rule:evenodd;clip-rule:evenodd;fill:url(#SVGID_30_);}
	.st35{fill-rule:evenodd;clip-rule:evenodd;fill:#FFFF8D;}
	.st36{fill-rule:evenodd;clip-rule:evenodd;fill:url(#SVGID_31_);}
	.st37{fill-rule:evenodd;clip-rule:evenodd;fill:url(#SVGID_32_);}
	.st38{fill-rule:evenodd;clip-rule:evenodd;fill:url(#SVGID_33_);}
	.st39{fill-rule:evenodd;clip-rule:evenodd;fill:url(#SVGID_34_);}
	.st40{fill-rule:evenodd;clip-rule:evenodd;fill:url(#SVGID_35_);}
	.st41{fill-rule:evenodd;clip-rule:evenodd;fill:url(#SVGID_36_);}
	.st42{fill-rule:evenodd;clip-rule:evenodd;fill:url(#SVGID_37_);}
</style>
<g id="BG">
</g>
<g id="planets">
	<g>
		<radialGradient id="SVGID_1_" cx="71.135" cy="71.1367" r="68.5519" gradientUnits="userSpaceOnUse">
			<stop  offset="5.586590e-03" style="stop-color:#00FF00"/>
			<stop  offset="1" style="stop-color:#000000"/>
		</radialGradient>
		<circle class="st0" cx="71.1" cy="71.1" r="68.6"/>
		<radialGradient id="SVGID_2_" cx="74.4598" cy="72.4476" r="53.1882" gradientUnits="userSpaceOnUse">
			<stop  offset="2.793300e-02" style="stop-color:#00FFA9"/>
			<stop  offset="0.1503" style="stop-color:#00FBA6"/>
			<stop  offset="0.2723" style="stop-color:#00EF9E"/>
			<stop  offset="0.3944" style="stop-color:#00DB91"/>
			<stop  offset="0.5165" style="stop-color:#00BF7E"/>
			<stop  offset="0.6387" style="stop-color:#009B66"/>
			<stop  offset="0.761" style="stop-color:#006E49"/>
			<stop  offset="0.881" style="stop-color:#003B27"/>
			<stop  offset="1" style="stop-color:#000000"/>
		</radialGradient>
		<circle class="st1" cx="74.5" cy="72.4" r="53.2"/>
		<radialGradient id="SVGID_3_" cx="43.0535" cy="48.5883" r="76.1015" gradientUnits="userSpaceOnUse">
			<stop  offset="5.586590e-03" style="stop-color:#0CC463"/>
			<stop  offset="0.2058" style="stop-color:#0CC163"/>
			<stop  offset="0.3613" style="stop-color:#0BB765"/>
			<stop  offset="0.5018" style="stop-color:#09A767"/>
			<stop  offset="0.6334" style="stop-color:#078F6B"/>
			<stop  offset="0.7576" style="stop-color:#04726F"/>
			<stop  offset="0.8715" style="stop-color:#004F74"/>
		</radialGradient>
		<path class="st2" d="M119.8,70.7c0,4.5-0.6,9-1.8,13.1c-2.4,8.4-7,15.8-13.3,21.6c-4.4,4.1-9.7,7.4-15.4,9.6
			c-5.2,2-10.9,3.1-16.8,3.1c-0.8,0-1.7,0-2.5-0.1h0c-1.2-0.1-2.5-0.2-3.7-0.3c-9.2-1.2-17.5-5-24.2-10.7c-2.5-2.1-4.8-4.5-6.9-7.1
			c-1.5-2-2.9-4-4.2-6.2c-0.3-0.5-0.6-1.1-0.9-1.6c0,0,0,0,0-0.1c-0.3-0.6-0.6-1.1-0.8-1.7c0,0,0,0,0,0c-0.8-1.8-1.5-3.7-2.1-5.6
			c-0.4-1.4-0.8-2.8-1.1-4.2c0,0,0,0,0,0c-0.2-1-0.4-2-0.5-3.1C25.2,75.3,25,73,25,70.7c0-1.3,0.1-2.6,0.2-3.9
			c0.1-0.8,0.2-1.6,0.3-2.4c0.6-4.7,1.9-9.1,3.8-13.2c0.9-2,2-4,3.2-5.9c2-3.1,4.3-6,7-8.5c8.5-8.3,20.2-13.4,33-13.4
			c0.5,0,1,0,1.5,0c0.5,0,1.1,0,1.6,0.1c2.7,0.2,5.4,0.6,7.9,1.2c1.5,0.4,3,0.8,4.4,1.3c1,0.3,1.9,0.7,2.9,1.1
			c0.7,0.3,1.4,0.6,2.1,0.9c0.1,0.1,0.2,0.1,0.4,0.2c4.6,2.3,8.8,5.2,12.4,8.8c0.5,0.5,1,1,1.5,1.5c0.3,0.4,0.7,0.7,1,1.1
			c0.6,0.6,1.1,1.3,1.6,1.9c1.9,2.4,3.6,5,4.9,7.7c1.6,3.2,2.9,6.6,3.8,10.1C119.3,63,119.8,66.8,119.8,70.7z"/>
		<g class="st3">
			<path class="st4" d="M36.9,49.5c-0.9,1.8-1.6,3.3-1.8,5.4c-0.1,1.5-0.4,2.9-0.2,4.4c0.2,1.6,0.8,2.9,1.2,4.4
				c0.6,1.8,1.5,3.4,2.8,4.7c2.3,2.2,5.5,2.3,8.2,0.8c1.4-0.8,2.5-1.8,4-2.4c2-0.9,3.9-1.7,5.3-3.5c1.5-1.9,2.1-4.2,2.3-6.6
				c0.1-1.4,0.3-2.8,0-4.2c-0.3-1.1-0.7-2.3-1.3-3.3c-0.4-0.8-1-1.6-1.5-2.3c-0.8-1-1.7-1.4-2.8-1.9c-0.7-0.3-1.3-0.7-2.1-0.7
				c-0.9,0-1.9,0-2.7,0.1c-1,0.1-2,0.5-3,0.8c-0.9,0.3-1.9,0.5-2.8,0.9c-0.9,0.4-1.8,0.7-2.7,0.9c-1.2,0.3-2.2,0.7-3.1,1.6
				c-0.2,0.2-0.6,0.5-0.8,0.7C35.6,49.8,35.7,50.3,36.9,49.5z"/>
			<path class="st4" d="M54.1,69.8c0.3-0.9,0.4-2.5,1.3-3.2c0.3-0.3,0.8-0.5,1.2-0.6c0.7-0.2,1.2,0.1,1.8,0.4
				c1.5,0.8,1.2,3.1,0.4,4.4c-0.7,1.1-2.5,2-3.7,1.1c-0.8-0.6-1.2-1.9-1-2.9c0.1,0,0.1,0,0.2,0L54.1,69.8z"/>
			<path class="st4" d="M82.7,84.2c-0.1,0.9-0.4,2.4-0.2,3.4c0.1,1,0.3,2,0.6,2.9c0.4,1.7,1.1,3.7,2.9,4.3c1.6,0.6,3.6,0,5.1-0.6
				c1.6-0.7,3.5-1.2,5-2.2c1.5-1,2.9-2.2,4-3.6c1.2-1.5,1.7-2.9,1.8-4.9c0.1-2.8-1.1-5.3-2.5-7.6c-1.6-2.6-4.5-3.4-7.3-2.3
				c-2.4,0.8-3.6,3.4-5.3,5.1c-0.5,0.5-0.9,1.1-1.5,1.6c-0.7,0.5-0.9,1-1.3,1.7c-0.3,0.5-0.8,0.9-1,1.5
				C82.5,84.2,82.7,85.1,82.7,84.2z"/>
			<path class="st4" d="M104.4,82.6c0.2-0.2,1.3-2.7,2.3-2.6c0.5,0.1,0.9,0.6,1.1,1c0.4,0.6,0.7,1.2,0.2,1.9
				c-0.6,0.9-3.2,1.6-3.3-0.1c-0.1,0-0.1,0-0.2,0V82.6z"/>
			<path class="st4" d="M65.8,32.1c0.2-0.2,1.3-2.7,2.3-2.6c0.5,0.1,0.9,0.6,1.1,1c0.4,0.6,0.7,1.2,0.2,1.9
				c-0.6,0.9-3.2,1.6-3.3-0.1c-0.1,0-0.1,0-0.2,0V32.1z"/>
			<path class="st4" d="M92.1,67.8c0.2-0.2,1.3-2.7,2.3-2.6c0.5,0.1,0.9,0.6,1.1,1c0.4,0.6,0.7,1.2,0.2,1.9
				c-0.6,0.9-3.2,1.6-3.3-0.1c-0.1,0-0.1,0-0.2,0V67.8z"/>
			<path class="st4" d="M85.7,56.1c-0.6,1.5-1.3,2.5-0.8,3.9c0.2,0.7,0.3,1.4,0.5,2.1c0.4,1.4,1.5,2.2,2.4,3.2
				c1.3,1.3,2.4,1.7,4.1,0.9c0.6-0.3,1.1-0.6,1.6-1c0.8-0.6,1.1-0.9,1.5-1.8c0.4-0.7,0.5-1.4,0.8-2.2c0.3-0.8,0.7-1.5,0.7-2.4
				c0-0.9,0.1-1.9-0.1-2.7c-0.3-1.1-0.9-2.1-1.5-3c-0.5-0.8-1.1-1.6-1.9-2.3c-0.7-0.5-1.5-0.5-2.3-0.7c-1.4-0.3-3.4,0.8-4.1,2
				C85.6,53.6,85,55.5,85.7,56.1z"/>
			<path class="st4" d="M82.4,65.2c0.1,1.1,0.5,2.1,1,3c0.2-0.1,0.5-0.2,0.7-0.3c0-0.3,0.2-0.4,0.3-0.7c0.1-0.3,0-0.7,0-1
				c0-0.6-0.2-1-0.4-1.5c-0.2-0.4-0.4-1.1-0.9-1C82.2,63.9,82.3,64.7,82.4,65.2L82.4,65.2z"/>
			<path class="st4" d="M35,95.5c0.1,0.9,0,1.6,0.5,2.3c0.5,0.7,1.1,1.4,1.7,2c0.4,0.4,1.1,1.3,1.8,0.9c0.6-0.3,0.7-1.4,0.7-2
				c0-0.5-0.2-1-0.3-1.4c-0.1-0.5-0.3-1-0.7-1.5c-0.5-0.8-1.7-2.1-2.8-1.5c-0.3,0.2-0.6,0.3-0.8,0.7C35,95.4,35,95.7,35,95.5z"/>
			<path class="st4" d="M58.8,91.7c-0.2-0.4-0.3-0.9-0.4-1.4c-0.1-0.1,0-0.3,0.1-0.4c0.2-0.5,0.3-1,0.6-1.5c0.5-0.8,1-1.7,1.8-2.3
				c0.3-0.2,0.6-0.2,1-0.3c0.3-0.1,0.7-0.2,1-0.3c0.6-0.1,1.3,0,1.9,0.2c0.7,0.2,1.5,0.4,2,0.7c0.6,0.3,0.9,0.9,1.3,1.4
				c0.7,1.1,1,2.6,0,3.7c-0.3,0.3-0.6,0.5-0.9,0.7c-0.3,0.2-0.7,0.5-1.1,0.7c-0.4,0.2-1,0.3-1.5,0.4c-0.9,0.2-1.9,0.2-2.9-0.1
				C60.8,93.1,60.1,92.4,58.8,91.7z"/>
		</g>
		<linearGradient id="SVGID_4_" gradientUnits="userSpaceOnUse" x1="104.7902" y1="80.4384" x2="104.7902" y2="53.9076">
			<stop  offset="0" style="stop-color:#007C6F"/>
			<stop  offset="0.6647" style="stop-color:#29D73B"/>
			<stop  offset="0.9888" style="stop-color:#3BFF24"/>
		</linearGradient>
		<path class="st5" d="M99.9,53.9c0,0-2.5,4.6-1.2,12.9c3,18.4,13.1,15.6,12.5,7L99.9,53.9z"/>
		
			<radialGradient id="SVGID_5_" cx="-85.2509" cy="156.1713" r="10.2261" gradientTransform="matrix(1.6545 0.2028 -0.1526 1.2446 234.7541 -78.544)" gradientUnits="userSpaceOnUse">
			<stop  offset="0" style="stop-color:#00FF00"/>
			<stop  offset="1" style="stop-color:#000000"/>
		</radialGradient>
		<path class="st6" d="M86.8,100.6c-0.9,7-9.1,11.8-18.5,10.7c-9.3-1.1-16.2-7.8-15.4-14.8c0.9-7,9.1-11.8,18.5-10.7
			S87.7,93.6,86.8,100.6z"/>
		<linearGradient id="SVGID_6_" gradientUnits="userSpaceOnUse" x1="25.0178" y1="57.75" x2="93.1676" y2="57.75">
			<stop  offset="1.117320e-02" style="stop-color:#92FF2C"/>
			<stop  offset="0.2325" style="stop-color:#8FFC2D"/>
			<stop  offset="0.3947" style="stop-color:#86F332"/>
			<stop  offset="0.5382" style="stop-color:#76E33A"/>
			<stop  offset="0.6707" style="stop-color:#5FCD44"/>
			<stop  offset="0.7958" style="stop-color:#42B152"/>
			<stop  offset="0.9136" style="stop-color:#1F8E63"/>
			<stop  offset="1" style="stop-color:#007072"/>
		</linearGradient>
		<path class="st7" d="M93.2,28.2c-0.2,0-0.3,0-0.5,0.1c-0.5,0.1-1,0-1.5-0.1c-0.4-0.1-0.6-0.3-1.1-0.3c-0.6-0.1-1.1-0.3-1.7-0.4
			c-0.6-0.1-1.1-0.3-1.7-0.5c-0.5-0.2-0.7-0.1-1.1,0c-0.4,0.1-0.7-0.1-1.1-0.2c-0.4-0.2-0.9-0.2-1.3-0.3c-1.2-0.2-2.4-0.6-3.6-0.9
			c-0.7-0.2-1.4-0.2-2.2-0.2c-0.6,0-1.1,0.2-1.7,0.2c-0.4,0-0.7-0.1-1.1-0.1c-0.4-0.1-0.8,0-1.2,0c-0.6-0.1-0.9-0.2-1.5,0
			c-0.5,0.1-0.8,0.1-1.3,0.2c-0.5,0-1.1,0.2-1.6,0.3c-0.9,0.2-1.9,0.4-2.8,0.4c-0.6,0-1.4-0.2-1.9,0c-0.3,0.1-0.5,0.5-0.8,0.7
			c-0.5,0.5-1,0.9-1.4,1.4c-0.4,0.5-0.8,1.1-0.8,1.8c0,0.6,0.3,1.3,0.6,1.8c0.3,0.6,0.4,1.1-0.2,1.5c-0.7,0.5-1.6,0.9-2.4,1.2
			c-0.6,0.2-1.1,0.3-1.5-0.1c-0.2-0.1-0.3-0.4-0.5-0.6c-0.2-0.1-0.5,0-0.7,0.1c-0.6,0.2-1.2,0.4-1.8,0.5c-0.4,0.1-0.7,0.3-1.1,0.3
			c-0.4,0.1-0.7-0.2-1.2-0.1c-0.6,0.1-1.3,0.4-1.9,0.4c-0.5,0-1.1-0.2-1.5-0.4c-0.2-0.1-0.3-0.3-0.6-0.2c-0.2,0-0.5,0.3-0.6,0.5
			c-0.2,0.2-0.2,0.5-0.4,0.7c-0.2,0.3-0.3,0.5-0.5,0.8c-0.3,0.5-0.6,1-0.9,1.5c-0.2,0.3-0.4,0.8-0.7,1.1c-0.1,0.2-0.4,0.3-0.6,0.4
			c-0.5,0.3-1,0.7-1.5,1c-0.9,0.7-1.8,1.5-2.7,2.2C40,43,39,43.3,38.1,43.6c-0.5,0.2-1,0.4-1.5,0.6c-0.2,0.1-0.5,0.1-0.6,0.3
			c-0.2,0.2-0.3,0.4-0.4,0.7c-0.4,0.5-0.9,1.1-1.2,1.7c-0.2,0.4-0.3,0.7-0.5,1.1c-0.2,0.5-0.5,1-0.6,1.6c-0.4,1.1-0.4,2.3-0.9,3.4
			c-0.2,0.6-0.6,1.2-0.9,1.8c-0.5,1-0.6,2.2-0.7,3.3c-0.1,0.6,0,1.4,0.1,2c0.1,0.7,0.1,1.4,0.1,2.1c0,0.7-0.5,1.5-0.9,2
			c-0.4,0.5-1.1,0.7-1.6,1.2c-0.4,0.4-0.9,0.8-1.1,1.4c-0.1,0.2,0,0.5,0,0.8c-0.1,0.6-0.3,1.1-0.3,1.7c-0.1,0.7-0.1,1.4-0.1,2.2
			c0,0.4,0,0.7,0,1.1c0,0.4,0.1,0.7,0.2,1c0,0.2,0,0.5,0,0.7c0,0.3,0.2,0.6,0.2,0.8c0.2,0.7,0.3,1.3,0.4,2c0.1,0.6,0.4,1.2,0.5,1.8
			c0.3,0.8,0.4,1.6,0.6,2.5c0.1,0.6,0.1,1.3,0.2,1.9c0.1,0.5,0.2,1,0.2,1.5c0,0.8-0.2,1.5-0.2,2.3c0,1.3,0.5,2.6,0.8,3.9
			c0.1,0.4,0.2,0.7,0.3,1.1C26.9,85.7,25,78.4,25,70.7c0-9.4,2.7-18.1,7.4-25.4c2-3.1,4.3-6,7-8.5c8.5-8.3,20.2-13.4,33-13.4
			c1,0,2.1,0,3.1,0.1C81.8,23.9,87.8,25.5,93.2,28.2z"/>
		
			<radialGradient id="SVGID_7_" cx="-182.6766" cy="99.5142" r="3.9178" gradientTransform="matrix(2.394 1.3822 -0.7113 1.232 596.3757 178.4332)" gradientUnits="userSpaceOnUse">
			<stop  offset="0" style="stop-color:#00FF00"/>
			<stop  offset="1" style="stop-color:#000000"/>
		</radialGradient>
		<path class="st8" d="M97.6,54c-1.5,2.7-7,2.4-12.2-0.6c-5.2-3-8.1-7.6-6.6-10.2c1.5-2.7,7-2.4,12.2,0.6S99.2,51.3,97.6,54z"/>
		<radialGradient id="SVGID_8_" cx="104.8053" cy="94.6872" r="6.8021" gradientUnits="userSpaceOnUse">
			<stop  offset="1.117320e-02" style="stop-color:#3BFF24"/>
			<stop  offset="0.5336" style="stop-color:#26D832"/>
			<stop  offset="1" style="stop-color:#11B140"/>
		</radialGradient>
		<path class="st9" d="M108.2,87.2c0,0-4.7,0.1-8.6,4.9c-3.8,4.8-3.8,9.1-3.3,10.5C96.9,104.1,108.2,87.2,108.2,87.2z"/>
		
			<radialGradient id="SVGID_9_" cx="-245.4903" cy="149.3978" r="7.0057" gradientTransform="matrix(0.2225 1.652 -1.4099 0.1899 367.3888 443.0506)" gradientUnits="userSpaceOnUse">
			<stop  offset="0" style="stop-color:#00FF00"/>
			<stop  offset="1" style="stop-color:#000000"/>
		</radialGradient>
		<path class="st10" d="M103.7,77.4c-5.5,0.7-10.6-3.9-11.4-10.2c-0.9-6.4,2.9-12.2,8.3-12.9c5.5-0.7,10.6,3.9,11.4,10.2
			C112.9,70.9,109.1,76.7,103.7,77.4z"/>
		<radialGradient id="SVGID_10_" cx="37.7727" cy="38.5005" r="62.3574" gradientUnits="userSpaceOnUse">
			<stop  offset="0" style="stop-color:#FFFF4A"/>
			<stop  offset="1" style="stop-color:#000000"/>
		</radialGradient>
		<path class="st11" d="M44.3,107.7c-4.9-4.1-9-9.2-11.9-14.9c-1.8-3.6-3.2-7.5-4.1-11.6c0,0,0,0,0,0c-0.7-3.2-1-6.4-1-9.8
			c0-9.4,2.7-18.1,7.4-25.4c2-3.1,4.3-6,7-8.5c8.5-8.3,20.2-13.4,33-13.4c1,0,2.1,0,3.1,0.1c3.2,0.2,6.3,0.7,9.3,1.6
			c-3.7-1.2-7.6-2-11.7-2.2c-1-0.1-2-0.1-3.1-0.1c-12.8,0-24.5,5.1-33,13.4c-2.6,2.6-5,5.4-7,8.5C27.7,52.7,25,61.4,25,70.7
			c0,3.4,0.4,6.6,1,9.8c0,0,0,0,0,0c0.9,4.1,2.2,7.9,4.1,11.6c2.9,5.8,7,10.8,11.9,14.9c5.2,4.4,11.3,7.6,18,9.4
			C54.2,114.6,48.9,111.6,44.3,107.7z"/>
		<path class="st12" d="M103.8,106.2c0,0-5.4,1.3-7.2-2.7c-1.8-4,5.1-14.7,10.6-16c5.5-1.4,6.6,5.1,6.6,5.1L103.8,106.2z"/>
		<radialGradient id="SVGID_11_" cx="91.4516" cy="41.3413" r="9.9828" gradientUnits="userSpaceOnUse">
			<stop  offset="1.675980e-02" style="stop-color:#B0FF24"/>
			<stop  offset="0.2859" style="stop-color:#88F72B"/>
			<stop  offset="0.8869" style="stop-color:#25E43D"/>
			<stop  offset="1" style="stop-color:#11E040"/>
		</radialGradient>
		<path class="st13" d="M71.1,32c0,0,2.2,7.5,10.1,13.1c12.8,9.1,18,5.8,18,5.8L71.1,32z"/>
		<path class="st12" d="M88.5,114.6c0,0,5.5-2.9,5.6-6.8c0.1-3.9-8.3-9.3-24.7-11.6c-15-2.2-26.5,1.1-27.2,4
			c-0.8,2.9,3.2,10,11.1,13.5C61.3,117.3,84.4,116.6,88.5,114.6z"/>
		<radialGradient id="SVGID_12_" cx="73.244" cy="48.428" r="4.0613" gradientUnits="userSpaceOnUse">
			<stop  offset="1.675980e-02" style="stop-color:#B0FF24"/>
			<stop  offset="0.2859" style="stop-color:#88F72B"/>
			<stop  offset="0.8869" style="stop-color:#25E43D"/>
			<stop  offset="1" style="stop-color:#11E040"/>
		</radialGradient>
		<path class="st14" d="M62.3,45.7c0,0,3.3,5.3,8.5,5.7c5.2,0.5,6.7-3.6,6.7-3.6S65.7,47.7,62.3,45.7z"/>
		<path class="st15" d="M60.1,41.5c0,0,1.8,6.8,8.8,8.6c7.7,2,10-3.1,8.9-5.9C76.7,41.4,67.5,37.2,60.1,41.5z"/>
		<radialGradient id="SVGID_13_" cx="57.7801" cy="33.2389" r="6.111" gradientUnits="userSpaceOnUse">
			<stop  offset="1.675980e-02" style="stop-color:#B0FF24"/>
			<stop  offset="0.2859" style="stop-color:#88F72B"/>
			<stop  offset="0.8869" style="stop-color:#25E43D"/>
			<stop  offset="1" style="stop-color:#11E040"/>
		</radialGradient>
		<path class="st16" d="M44.9,39.2c0,0,4.9,0.9,12-3.4c7.2-4.3,5.7-8.2,5.7-8.2L44.9,39.2z"/>
		<path class="st15" d="M43.2,36.1c0,0-1.8,2.5,1.7,3.1c3.5,0.6,15.5-5.2,17.7-9.7C64.8,25.1,53.2,22.6,43.2,36.1z"/>
		<path class="st17" d="M74.8,26.9c0,0-4.7,0.8-4.9,3.2c-0.3,2.4,7.4,12.2,15.8,17.3c8.4,5.2,16.5,3.4,17.8,2.2
			C104.7,48.3,92.6,28.1,74.8,26.9z"/>
		<path class="st12" d="M107.6,54.7c0,0-4.5-4.7-8-2.9c-2.9,1.4-1.7,15.8,1.4,21.2c3,5.5,6.9,5,8.5,3.8S111.3,59.6,107.6,54.7z"/>
		<path class="st12" d="M107.3,44.2c0,0-1.4-0.4-2.3,0.9c-0.9,1.3,5.4,10.3,8.1,11.4c2.7,1.1,3.2-2.7,3.2-2.7L107.3,44.2z"/>
		<radialGradient id="SVGID_14_" cx="87.6798" cy="42.5445" r="14.3242" gradientUnits="userSpaceOnUse">
			<stop  offset="1.117320e-02" style="stop-color:#00FF24"/>
			<stop  offset="0.1859" style="stop-color:#28FF1E"/>
			<stop  offset="0.5798" style="stop-color:#8DFF10"/>
			<stop  offset="1" style="stop-color:#FFFF00"/>
		</radialGradient>
		<path class="st18" d="M73.4,30c-2.1,3.6,16.9,23.9,28.4,20.1c2.3-0.8,3.5-15.7-4.2-22.8C91.3,21.4,77.6,22.9,73.4,30z"/>
		<radialGradient id="SVGID_15_" cx="102.0768" cy="67.4436" r="9.7253" gradientUnits="userSpaceOnUse">
			<stop  offset="1.117320e-02" style="stop-color:#00FF24"/>
			<stop  offset="0.1859" style="stop-color:#28FF1E"/>
			<stop  offset="0.5798" style="stop-color:#8DFF10"/>
			<stop  offset="1" style="stop-color:#FFFF00"/>
		</radialGradient>
		<path class="st19" d="M101.9,54.1c-3.4,1.4-2.9,16.7,1.4,21.1c4.3,4.4,10.9-2,11.5-8.7C115.4,59.8,107.3,51.8,101.9,54.1z"/>
		<radialGradient id="SVGID_16_" cx="110.3635" cy="51.202" r="5.8524" gradientUnits="userSpaceOnUse">
			<stop  offset="1.117320e-02" style="stop-color:#00FF24"/>
			<stop  offset="0.1859" style="stop-color:#28FF1E"/>
			<stop  offset="0.5798" style="stop-color:#8DFF10"/>
			<stop  offset="1" style="stop-color:#FFFF00"/>
		</radialGradient>
		<path class="st20" d="M106.3,45.9c-0.2,3.1,6.4,9.8,8.5,9.1c2.1-0.7,4-5.6,2.6-9.1C116,42.5,106.5,42.1,106.3,45.9z"/>
		<radialGradient id="SVGID_17_" cx="66.8626" cy="114.1546" r="21.7436" gradientUnits="userSpaceOnUse">
			<stop  offset="1.117320e-02" style="stop-color:#00FF24"/>
			<stop  offset="0.1859" style="stop-color:#28FF1E"/>
			<stop  offset="0.5798" style="stop-color:#8DFF10"/>
			<stop  offset="1" style="stop-color:#FFFF00"/>
		</radialGradient>
		<path class="st21" d="M46,98.7c-8.9,2.3,5.9,19.8,18.5,22.1c14.8,2.7,28.2-7.3,28.5-12.8C93.2,102.5,62.6,94.4,46,98.7z"/>
		<radialGradient id="SVGID_18_" cx="105.8535" cy="100.9329" r="8.3382" gradientUnits="userSpaceOnUse">
			<stop  offset="1.117320e-02" style="stop-color:#00FF24"/>
			<stop  offset="0.1859" style="stop-color:#28FF1E"/>
			<stop  offset="0.5798" style="stop-color:#8DFF10"/>
			<stop  offset="1" style="stop-color:#FFFF00"/>
		</radialGradient>
		<path class="st22" d="M98,103.2c-1.6-3.9,7.8-16.2,12.1-14.7c4.4,1.5,7.2,11.6,1.3,15.8C107.9,106.8,99.7,107.3,98,103.2z"/>
		<radialGradient id="SVGID_19_" cx="51.9127" cy="33.7079" r="8.8262" gradientUnits="userSpaceOnUse">
			<stop  offset="1.117320e-02" style="stop-color:#00FF24"/>
			<stop  offset="0.1859" style="stop-color:#28FF1E"/>
			<stop  offset="0.5798" style="stop-color:#8DFF10"/>
			<stop  offset="1" style="stop-color:#FFFF00"/>
		</radialGradient>
		<path class="st23" d="M45.1,38.2c4.4,0.9,14.7-6.2,16.5-9.6c1.9-3.4-7.8-7.9-14.2-4.6C42.8,26.3,41.2,37.4,45.1,38.2z"/>
		<radialGradient id="SVGID_20_" cx="68.4491" cy="45.6229" r="8.0746" gradientUnits="userSpaceOnUse">
			<stop  offset="1.117320e-02" style="stop-color:#00FF24"/>
			<stop  offset="0.1859" style="stop-color:#28FF1E"/>
			<stop  offset="0.5798" style="stop-color:#8DFF10"/>
			<stop  offset="1" style="stop-color:#FFFF00"/>
		</radialGradient>
		<path class="st24" d="M61.9,38.3c-4.9,2.3,0.6,8.6,6.2,10.5s10.5-1.5,9.6-5.2C76.7,39.8,70.5,34.3,61.9,38.3z"/>
		<radialGradient id="SVGID_21_" cx="67.1758" cy="98.8948" r="15.7438" gradientUnits="userSpaceOnUse">
			<stop  offset="1.117320e-02" style="stop-color:#3BFF24"/>
			<stop  offset="0.5336" style="stop-color:#26D832"/>
			<stop  offset="1" style="stop-color:#11B140"/>
		</radialGradient>
		<path class="st25" d="M49.6,95.9c0,0,18.7-2.7,37.1,5C86.6,100.9,69.4,90.3,49.6,95.9z"/>
		<radialGradient id="SVGID_22_" cx="109.4884" cy="50.3354" r="3.8999" gradientUnits="userSpaceOnUse">
			<stop  offset="1.117320e-02" style="stop-color:#3BFF24"/>
			<stop  offset="0.5336" style="stop-color:#26D832"/>
			<stop  offset="1" style="stop-color:#11B140"/>
		</radialGradient>
		<path class="st26" d="M105,46c0,0,1.2,6,6.2,9C111.2,55,106.5,50.4,105,46z"/>
		<radialGradient id="SVGID_23_" cx="38.8999" cy="43.5693" r="49.4184" gradientUnits="userSpaceOnUse">
			<stop  offset="0" style="stop-color:#97FF11"/>
			<stop  offset="1" style="stop-color:#000000"/>
		</radialGradient>
		<path class="st27" d="M25,70.7c0.2,2.4,1.4-10.6,5.7-12.7C35,56,48.1,65.3,54.2,69c13.9,8.6,29.6-1.2,33.5-6.4
			c3.9-5.3-1.9-13.5-5.2-15.3c-3.3-1.8-4.9,6.3-11.6,5.3S58.9,44,58.4,41.5s5.8-6.2,8.4-6.6c2.7-0.4,5.6-7.8,3.7-9.5
			c-1.9-1.7-4.9,6.5-12.2,11.4c-5.2,3.5-13.3,6.7-17.6,0.3C40.8,37.1,23.2,50.8,25,70.7z"/>
		<linearGradient id="SVGID_24_" gradientUnits="userSpaceOnUse" x1="79.7874" y1="24.4045" x2="93.8394" y2="37.7191">
			<stop  offset="0" style="stop-color:#FFFFE8"/>
			<stop  offset="0.2005" style="stop-color:#BBBBAA"/>
			<stop  offset="0.4155" style="stop-color:#79796E"/>
			<stop  offset="0.6108" style="stop-color:#45453F"/>
			<stop  offset="0.7795" style="stop-color:#1F1F1D"/>
			<stop  offset="0.9148" style="stop-color:#080808"/>
			<stop  offset="1" style="stop-color:#000000"/>
		</linearGradient>
		<path class="st28" d="M75,30.6c-0.2,3.2,6.9,1.7,13.3,1.4c6.4-0.4,11.3-0.4,11.3-0.4s-4.8-5.6-12.9-6.5
			C78.7,24.2,75.1,28.6,75,30.6z"/>
		<linearGradient id="SVGID_25_" gradientUnits="userSpaceOnUse" x1="45.8204" y1="25.3558" x2="50.0951" y2="29.4062">
			<stop  offset="0" style="stop-color:#FFFFE8"/>
			<stop  offset="0.2005" style="stop-color:#BBBBAA"/>
			<stop  offset="0.4155" style="stop-color:#79796E"/>
			<stop  offset="0.6108" style="stop-color:#45453F"/>
			<stop  offset="0.7795" style="stop-color:#1F1F1D"/>
			<stop  offset="0.9148" style="stop-color:#080808"/>
			<stop  offset="1" style="stop-color:#000000"/>
		</linearGradient>
		<path class="st29" d="M44.4,34.6c1.9,0.9,2.4-5,5.1-7.7c2.7-2.7,5.8-3.2,5.8-3.2s-5.4-0.1-8.8,1.5C43,26.7,42.7,33.8,44.4,34.6z"
			/>
		<linearGradient id="SVGID_26_" gradientUnits="userSpaceOnUse" x1="64.4597" y1="36.2481" x2="72.4605" y2="43.8289">
			<stop  offset="0" style="stop-color:#FFFFE8"/>
			<stop  offset="0.2005" style="stop-color:#BBBBAA"/>
			<stop  offset="0.4155" style="stop-color:#79796E"/>
			<stop  offset="0.6108" style="stop-color:#45453F"/>
			<stop  offset="0.7795" style="stop-color:#1F1F1D"/>
			<stop  offset="0.9148" style="stop-color:#080808"/>
			<stop  offset="1" style="stop-color:#000000"/>
		</linearGradient>
		<path class="st30" d="M61.2,39.6c0,0,3.2-2.5,7.3-2.3c4.2,0.2,7.2,3,7.2,3s-3.2-1-5.4-0.3C68.2,40.8,64.8,44.4,61.2,39.6z"/>
		<linearGradient id="SVGID_27_" gradientUnits="userSpaceOnUse" x1="101.6877" y1="54.8081" x2="113.2381" y2="65.7522">
			<stop  offset="0" style="stop-color:#FFFFE8"/>
			<stop  offset="0.2005" style="stop-color:#BBBBAA"/>
			<stop  offset="0.4155" style="stop-color:#79796E"/>
			<stop  offset="0.6108" style="stop-color:#45453F"/>
			<stop  offset="0.7795" style="stop-color:#1F1F1D"/>
			<stop  offset="0.9148" style="stop-color:#080808"/>
			<stop  offset="1" style="stop-color:#000000"/>
		</linearGradient>
		<path class="st31" d="M101.5,55c0,0,4.4-1.7,8.5,2.2c4.1,3.8,4.4,7.3,4.4,7.3s-2.7-4-5.3-4.4c-2.7-0.4-5.9,1.6-7.2,0.4
			C100.5,59.3,100.3,56.2,101.5,55z"/>
		<linearGradient id="SVGID_28_" gradientUnits="userSpaceOnUse" x1="109.0311" y1="42.7998" x2="116.9942" y2="50.3449">
			<stop  offset="0" style="stop-color:#FFFFE8"/>
			<stop  offset="0.2005" style="stop-color:#BBBBAA"/>
			<stop  offset="0.4155" style="stop-color:#79796E"/>
			<stop  offset="0.6108" style="stop-color:#45453F"/>
			<stop  offset="0.7795" style="stop-color:#1F1F1D"/>
			<stop  offset="0.9148" style="stop-color:#080808"/>
			<stop  offset="1" style="stop-color:#000000"/>
		</linearGradient>
		<path class="st32" d="M107.2,44.7c0,0,0.9-1.2,4-1.2c3.1,0.1,5,1.5,5.7,2.4c0.7,0.9,0.3,4.1,0.3,4.1s-0.3-2.5-1.5-3.7
			C114.5,45.1,107.2,48,107.2,44.7z"/>
		<linearGradient id="SVGID_29_" gradientUnits="userSpaceOnUse" x1="103.6824" y1="92.6385" x2="111.2262" y2="99.7864">
			<stop  offset="0" style="stop-color:#FFFFE8"/>
			<stop  offset="0.2005" style="stop-color:#BBBBAA"/>
			<stop  offset="0.4155" style="stop-color:#79796E"/>
			<stop  offset="0.6108" style="stop-color:#45453F"/>
			<stop  offset="0.7795" style="stop-color:#1F1F1D"/>
			<stop  offset="0.9148" style="stop-color:#080808"/>
			<stop  offset="1" style="stop-color:#000000"/>
		</linearGradient>
		<path class="st33" d="M99.6,97.9c0,0,5.5-8.9,9.5-8.3c4,0.6,5.4,6.8,5.4,6.8s-2.4-3.3-7.2-2.8C102.3,94.2,99.6,97.9,99.6,97.9z"/>
		<linearGradient id="SVGID_30_" gradientUnits="userSpaceOnUse" x1="52.5147" y1="92.2593" x2="79.594" y2="117.9174">
			<stop  offset="0" style="stop-color:#FFFFE8"/>
			<stop  offset="0.2005" style="stop-color:#BBBBAA"/>
			<stop  offset="0.4155" style="stop-color:#79796E"/>
			<stop  offset="0.6108" style="stop-color:#45453F"/>
			<stop  offset="0.7795" style="stop-color:#1F1F1D"/>
			<stop  offset="0.9148" style="stop-color:#080808"/>
			<stop  offset="1" style="stop-color:#000000"/>
		</linearGradient>
		<path class="st34" d="M44.4,100.9c0,0,7.5-3.8,22.6-1.7c15.1,2.1,23.7,7,23.7,7s-15.6-3.4-24.8-1.9c-9.2,1.5-12,9.6-12,9.6
			S42.5,109.1,44.4,100.9z"/>
		<path class="st35" d="M68.8,120.2c0,0,10.4-1.5,15.7-3.9C84.5,116.3,73.5,122.4,68.8,120.2z"/>
		<path class="st35" d="M99.3,103.5c0,0,4.2,1.4,9.7,0.9C109.1,104.4,102.5,106.9,99.3,103.5z"/>
		<path class="st35" d="M100.7,67.2c0,0,3.4,6.3,6.9,7.8C107.6,75,103.5,76.5,100.7,67.2z"/>
		<path class="st35" d="M83.4,41.5c0,0,6.3,7,16.2,7.8L83.4,41.5z"/>
		<path class="st35" d="M62.8,44.2c0,0,3.4,4.5,9.6,4.6L62.8,44.2z"/>
		<path class="st35" d="M44.9,37.3c0,0,6.6-1,13.5-5.9L44.9,37.3z"/>
		
			<radialGradient id="SVGID_31_" cx="0.893" cy="65.6751" r="7.3734" gradientTransform="matrix(0.9696 0.2447 -0.2447 0.9696 55.5614 10.8289)" gradientUnits="userSpaceOnUse">
			<stop  offset="1.675980e-02" style="stop-color:#B0FF24"/>
			<stop  offset="0.2859" style="stop-color:#88F72B"/>
			<stop  offset="0.8869" style="stop-color:#25E43D"/>
			<stop  offset="1" style="stop-color:#11E040"/>
		</radialGradient>
		<path class="st36" d="M31.9,64.5c0,0,7.3,5.7,10.4,19.5C42.3,84,44.1,70.4,31.9,64.5z"/>
		<path class="st15" d="M32.1,93.5c0,0,5.9,2.9,9.1-0.1c3.1-3,1.2-13.2-3.1-21c-4.3-7.7-9.6-11.2-11.8-10
			C24.8,63.1,16.8,82.4,32.1,93.5z"/>
		
			<radialGradient id="SVGID_32_" cx="-6.3419" cy="77.6363" r="11.5803" gradientTransform="matrix(0.9696 0.2447 -0.2447 0.9696 55.5614 10.8289)" gradientUnits="userSpaceOnUse">
			<stop  offset="1.117320e-02" style="stop-color:#00FF24"/>
			<stop  offset="0.1859" style="stop-color:#28FF1E"/>
			<stop  offset="0.5798" style="stop-color:#8DFF10"/>
			<stop  offset="1" style="stop-color:#FFFF00"/>
		</radialGradient>
		<path class="st37" d="M27.4,64.3c-3.9-1-7,12.6-5,20c2.6,9.6,15.4,11,18.2,8.1C43.2,89.5,41.3,67.8,27.4,64.3z"/>
		
			<linearGradient id="SVGID_33_" gradientUnits="userSpaceOnUse" x1="-17.0934" y1="63.3511" x2="-7.9101" y2="72.0523" gradientTransform="matrix(0.9696 0.2447 -0.2447 0.9696 55.5614 10.8289)">
			<stop  offset="0" style="stop-color:#FFFFE8"/>
			<stop  offset="0.2005" style="stop-color:#BBBBAA"/>
			<stop  offset="0.4155" style="stop-color:#79796E"/>
			<stop  offset="0.6108" style="stop-color:#45453F"/>
			<stop  offset="0.7795" style="stop-color:#1F1F1D"/>
			<stop  offset="0.9148" style="stop-color:#080808"/>
			<stop  offset="1" style="stop-color:#000000"/>
		</linearGradient>
		<path class="st38" d="M23.2,83.2c0,0-1.1-14,2.4-16.5c3.5-2.5,8.8,2.8,8.8,2.8s-2.5,0.7-5.8,2.5C25.2,73.9,23.2,83.2,23.2,83.2z"
			/>
		<path class="st35" d="M27.8,90c0,0,4.6,2.5,8.1,2.8C35.9,92.8,31.4,94.6,27.8,90z"/>
		
			<radialGradient id="SVGID_34_" cx="-31.4443" cy="183.7239" r="4.4533" gradientTransform="matrix(1.6187 -0.3977 0.2992 1.2177 105.4682 -133.4007)" gradientUnits="userSpaceOnUse">
			<stop  offset="0" style="stop-color:#00FF00"/>
			<stop  offset="1" style="stop-color:#000000"/>
		</radialGradient>
		<path class="st39" d="M116.7,101.1c0.7,3-1.9,6.2-5.9,7.2c-4,1-7.8-0.7-8.5-3.7c-0.7-3,1.9-6.2,5.9-7.2
			C112.2,96.4,116,98.1,116.7,101.1z"/>
		
			<radialGradient id="SVGID_35_" cx="-217.2904" cy="202.0124" r="6.1798" gradientTransform="matrix(0.1357 1.6613 -1.2498 0.1021 307.3006 422.2904)" gradientUnits="userSpaceOnUse">
			<stop  offset="0" style="stop-color:#00FF00"/>
			<stop  offset="1" style="stop-color:#000000"/>
		</radialGradient>
		<path class="st40" d="M26.2,92.2c-4.3,0.3-8.1-4-8.6-9.6c-0.5-5.7,2.6-10.5,6.9-10.9c4.3-0.3,8.1,4,8.6,9.6
			C33.5,87,30.4,91.8,26.2,92.2z"/>
		
			<radialGradient id="SVGID_36_" cx="-251.3154" cy="268.8415" r="4.2624" gradientTransform="matrix(-1.0488 1.2956 -1.1057 -0.8951 80.5574 593.179)" gradientUnits="userSpaceOnUse">
			<stop  offset="0" style="stop-color:#00FF00"/>
			<stop  offset="1" style="stop-color:#000000"/>
		</radialGradient>
		<path class="st41" d="M42.4,32.5c-2.6-2.1-2.7-6.3-0.2-9.3s6.6-3.8,9.2-1.7s2.7,6.3,0.2,9.3C49.1,33.8,45,34.6,42.4,32.5z"/>
		
			<radialGradient id="SVGID_37_" cx="-254.9046" cy="140.0257" r="7.0057" gradientTransform="matrix(0.2225 1.652 -1.4099 0.1899 367.3888 443.0506)" gradientUnits="userSpaceOnUse">
			<stop  offset="0" style="stop-color:#00FF00"/>
			<stop  offset="1" style="stop-color:#000000"/>
		</radialGradient>
		<path class="st42" d="M114.8,60.1c-5.5,0.7-10.6-3.9-11.4-10.2c-0.9-6.4,2.9-12.2,8.3-12.9c5.5-0.7,10.6,3.9,11.4,10.2
			C124,53.6,120.3,59.4,114.8,60.1z"/>
	</g>
</g>
</svg>
