<?xml version="1.0" encoding="utf-8"?>
<!-- Generator: Adobe Illustrator 24.1.2, SVG Export Plug-In . SVG Version: 6.00 Build 0)  -->
<svg version="1.1" id="Layer_1" xmlns="http://www.w3.org/2000/svg" xmlns:xlink="http://www.w3.org/1999/xlink" x="0px" y="0px"
	 viewBox="0 0 101.5 101.5" style="enable-background:new 0 0 101.5 101.5;" xml:space="preserve">
<style type="text/css">
	.st0{fill:url(#SVGID_1_);}
	.st1{fill:url(#SVGID_2_);}
	.st2{fill:url(#SVGID_3_);}
	.st3{fill:url(#SVGID_4_);}
	.st4{fill:url(#SVGID_5_);}
	.st5{fill:url(#SVGID_6_);}
	.st6{opacity:0.5;fill:#9185E7;}
	.st7{fill:url(#SVGID_7_);}
	.st8{opacity:0.25;fill:#FFFFFF;}
	.st9{fill:url(#SVGID_8_);}
	.st10{opacity:0.5;fill:#61379D;}
	.st11{fill:url(#SVGID_9_);}
	.st12{fill:url(#SVGID_10_);}
	.st13{fill:url(#SVGID_11_);}
	.st14{fill:url(#SVGID_12_);}
	.st15{fill:#FFFFFF;}
	.st16{opacity:0.5;fill:#FFFFFF;}
</style>
<g>
	<linearGradient id="SVGID_1_" gradientUnits="userSpaceOnUse" x1="51.2891" y1="97.3816" x2="51.2891" y2="40.3363">
		<stop  offset="0" style="stop-color:#55FBFF"/>
		<stop  offset="0.2785" style="stop-color:#52F8FE"/>
		<stop  offset="0.4898" style="stop-color:#48EEF9"/>
		<stop  offset="0.6789" style="stop-color:#38DEF2"/>
		<stop  offset="0.8541" style="stop-color:#21C7E8"/>
		<stop  offset="0.9892" style="stop-color:#0AB0DD"/>
	</linearGradient>
	<path class="st0" d="M22.1,78.3c0,0,4,19.3,29.5,19.1c25-0.1,28.9-21.8,28.9-21.8L51.8,40.3L22.1,78.3z"/>
	<linearGradient id="SVGID_2_" gradientUnits="userSpaceOnUse" x1="50.7651" y1="94.2542" x2="50.7651" y2="80.9143">
		<stop  offset="5.376340e-03" style="stop-color:#F94E41"/>
		<stop  offset="0.121" style="stop-color:#F2483B"/>
		<stop  offset="0.6772" style="stop-color:#D62E21"/>
		<stop  offset="1" style="stop-color:#CC2417"/>
	</linearGradient>
	<path class="st1" d="M58.1,80.9c0,0-0.3,1-0.9,2.5c-0.3,0.7-0.6,1.5-0.9,2.4c-1.6,3.8-3.9,8.5-6,8.4c-1.9-0.1-3.9-4.6-5.3-8.3
		c-0.3-0.9-0.6-1.7-0.8-2.4c-0.4-1.3-0.7-2.3-0.7-2.3L58.1,80.9z"/>
	<linearGradient id="SVGID_3_" gradientUnits="userSpaceOnUse" x1="83.9684" y1="89.8714" x2="83.9684" y2="75.0804">
		<stop  offset="5.376340e-03" style="stop-color:#F94E41"/>
		<stop  offset="0.121" style="stop-color:#F2483B"/>
		<stop  offset="0.6772" style="stop-color:#D62E21"/>
		<stop  offset="1" style="stop-color:#CC2417"/>
	</linearGradient>
	<path class="st2" d="M91.1,75.1c0,0-0.1,1.4-0.3,3.4c-0.1,0.8-0.2,1.7-0.4,2.6c-0.7,4-1.8,8.5-3.8,8.8c-1.8,0.3-4.7-3.3-6.8-6.5
		c-0.5-0.8-1-1.5-1.4-2.2c-0.9-1.4-1.4-2.4-1.4-2.4L91.1,75.1z"/>
	<linearGradient id="SVGID_4_" gradientUnits="userSpaceOnUse" x1="16.7147" y1="89.8704" x2="16.7147" y2="75.0804">
		<stop  offset="5.376340e-03" style="stop-color:#F94E41"/>
		<stop  offset="0.121" style="stop-color:#F2483B"/>
		<stop  offset="0.6772" style="stop-color:#D62E21"/>
		<stop  offset="1" style="stop-color:#CC2417"/>
	</linearGradient>
	<path class="st3" d="M23.8,78.9c0,0-0.7,1.2-1.8,2.9c-0.4,0.7-0.9,1.4-1.4,2.1c-2.1,3-4.8,6.3-6.5,6c-1.8-0.3-3-4.1-3.7-7.8
		c-0.1-0.8-0.3-1.6-0.4-2.3c-0.4-2.6-0.5-4.6-0.5-4.6L23.8,78.9z"/>
	<linearGradient id="SVGID_5_" gradientUnits="userSpaceOnUse" x1="8.1522" y1="44.0884" x2="93.3778" y2="44.0884">
		<stop  offset="0.2312" style="stop-color:#FFE6DC"/>
		<stop  offset="0.3442" style="stop-color:#F5DCDB"/>
		<stop  offset="0.5394" style="stop-color:#D9C0D8"/>
		<stop  offset="0.7918" style="stop-color:#AB94D3"/>
		<stop  offset="0.9946" style="stop-color:#826CCF"/>
	</linearGradient>
	<path class="st4" d="M93.4,78.4c-15.8,4.4-31.5,5.8-45.1,5.6c-1.5,0-3,0-4.5-0.1c-11.6-0.4-21.4-1.7-27.7-2.8c-5.1-0.9-8-1.7-8-1.7
		c5.6-26.3,17.4-47,27-60.4c4.2-5.9,8-10.4,10.5-13.2c0.8-0.9,1.9-1.5,3.1-1.6c0.3,0,0.5,0,0.8,0c1.3,0,2.5,0.5,3.4,1.4
		c4.4,4.3,8.3,8.8,11.8,13.4C86.5,47.1,93.4,78.4,93.4,78.4z"/>
	<linearGradient id="SVGID_6_" gradientUnits="userSpaceOnUse" x1="8.1522" y1="80.0675" x2="93.3778" y2="80.0675">
		<stop  offset="0" style="stop-color:#8365BF"/>
		<stop  offset="1" style="stop-color:#61379D"/>
	</linearGradient>
	<path class="st5" d="M92.8,76.1c-39.3,11-78,2.7-84.2,1.2c-0.2,0.7-0.3,1.4-0.5,2.1c0,0,42.3,11,85.2-1
		C93.4,78.4,93.2,77.6,92.8,76.1z"/>
	<path class="st6" d="M22.1,81.8c-0.4,0.7-0.9,1.4-1.4,2.1c-4.5-0.7-8-1.4-10.2-1.8c-0.1-0.8-0.3-1.6-0.4-2.3
		C12.6,80.2,16.7,81,22.1,81.8z"/>
	<path class="st6" d="M57.2,83.5c-0.3,0.7-0.6,1.5-0.9,2.4C52.4,86,48.6,86,45,85.9c-0.3-0.9-0.6-1.7-0.8-2.4
		C48.3,83.7,52.7,83.7,57.2,83.5z"/>
	<path class="st6" d="M90.7,78.5c-0.1,0.8-0.2,1.7-0.4,2.6c-3.6,0.9-7.1,1.7-10.7,2.3c-0.5-0.8-1-1.5-1.4-2.2
		C82.4,80.5,86.6,79.6,90.7,78.5z"/>
	<linearGradient id="SVGID_7_" gradientUnits="userSpaceOnUse" x1="49.9182" y1="20.0699" x2="49.9182" y2="4.1435">
		<stop  offset="0" style="stop-color:#8365BF"/>
		<stop  offset="1" style="stop-color:#61379D"/>
	</linearGradient>
	<path class="st7" d="M64.7,19c-11.2,1.9-22.6,1-29.6,0.1c4.2-5.9,8-10.4,10.5-13.2c1.9-2.1,5.2-2.2,7.2-0.2
		C57.3,9.9,61.2,14.4,64.7,19z"/>
	<path class="st8" d="M48.3,84c-13.6-0.1-25-1.6-32.2-2.9c0,0-0.6-0.6-0.6-0.6c-1-27,26.6-67.3,33.1-76.3c0.3,0,0.5,0,0.8,0
		C41.9,30.2,46.3,69.8,48.3,84z"/>
	<linearGradient id="SVGID_8_" gradientUnits="userSpaceOnUse" x1="43.8374" y1="44.0942" x2="93.3778" y2="44.0942">
		<stop  offset="0" style="stop-color:#FFFFFF"/>
		<stop  offset="0.1605" style="stop-color:#EDEAFA"/>
		<stop  offset="0.5385" style="stop-color:#C5BCEF"/>
		<stop  offset="0.8308" style="stop-color:#ADA0E8"/>
		<stop  offset="1" style="stop-color:#A496E5"/>
	</linearGradient>
	<path class="st9" d="M93.4,78.4c-3.9,1.1-7.7,2-11.5,2.7c-11.8,2.3-23.3,3-33.5,2.9c-1.5,0-3,0-4.5-0.1c0,0,0.1-0.1,0.2-0.1
		C91.5,60.4,57.5,14,49.5,4.2c1.2,0,2.4,0.5,3.4,1.4c4.4,4.3,8.3,8.8,11.8,13.4c4.8,6.2,8.9,12.6,12.3,18.8
		C89.2,59.4,93.4,78.4,93.4,78.4z"/>
	<g>
		<g>
			<circle class="st10" cx="51.9" cy="56.3" r="22"/>
			<linearGradient id="SVGID_9_" gradientUnits="userSpaceOnUse" x1="49.6579" y1="74.8247" x2="49.6579" y2="30.7523">
				<stop  offset="0.3027" style="stop-color:#B98FBD"/>
				<stop  offset="1" style="stop-color:#8365BF"/>
			</linearGradient>
			<circle class="st11" cx="49.7" cy="52.8" r="22"/>
			<linearGradient id="SVGID_10_" gradientUnits="userSpaceOnUse" x1="49.658" y1="73.7089" x2="49.658" y2="31.8681">
				<stop  offset="0" style="stop-color:#8365BF"/>
				<stop  offset="1" style="stop-color:#61379D"/>
			</linearGradient>
			<circle class="st12" cx="49.7" cy="52.8" r="20.9"/>
			<linearGradient id="SVGID_11_" gradientUnits="userSpaceOnUse" x1="49.6579" y1="68.1301" x2="49.6579" y2="37.4468">
				<stop  offset="5.376340e-03" style="stop-color:#FF871A"/>
				<stop  offset="0.1752" style="stop-color:#FF911C"/>
				<stop  offset="0.4688" style="stop-color:#FFAD22"/>
				<stop  offset="0.8483" style="stop-color:#FFDB2B"/>
				<stop  offset="0.9946" style="stop-color:#FFEE2F"/>
			</linearGradient>
			<circle class="st13" cx="49.7" cy="52.8" r="15.3"/>
			<linearGradient id="SVGID_12_" gradientUnits="userSpaceOnUse" x1="49.6579" y1="57.6642" x2="49.6579" y2="37.4468">
				<stop  offset="0" style="stop-color:#FFFFFF"/>
				<stop  offset="0.1798" style="stop-color:#FFDED4"/>
				<stop  offset="0.4632" style="stop-color:#FFAE95"/>
				<stop  offset="0.7034" style="stop-color:#FF8B68"/>
				<stop  offset="0.8879" style="stop-color:#FF754B"/>
				<stop  offset="0.9946" style="stop-color:#FF6D41"/>
			</linearGradient>
			<path class="st14" d="M50,46c6.8,0,12.4,4.4,14.5,10.5c0.3-1.2,0.5-2.4,0.5-3.7c0-8.5-6.9-15.3-15.3-15.3
				c-8.5,0-15.3,6.9-15.3,15.3c0,1.7,0.3,3.3,0.9,4.9C36.8,51,42.8,46,50,46z"/>
		</g>
		<path class="st15" d="M42.9,61.4c1.6,1.3,2.5,2.9,2,3.6c-0.5,0.7-2.3,0.2-3.9-1c-1.6-1.3-2.5-2.9-2-3.6
			C39.5,59.6,41.2,60.1,42.9,61.4z"/>
	</g>
	<path class="st16" d="M81.8,81.1c8.3-8.7,2.8-27.1-4.8-43.4c12.2,21.7,16.3,40.6,16.3,40.6C89.5,79.5,85.6,80.4,81.8,81.1z"/>
	<path class="st15" d="M63.4,56.2c-0.2,1.1-0.8,1.9-1.3,1.8c-0.5-0.1-0.7-1.1-0.5-2.2c0.2-1.1,0.8-1.9,1.3-1.8
		C63.4,54.1,63.6,55.1,63.4,56.2z"/>
</g>
</svg>
