<?xml version="1.0" encoding="UTF-8"?>
<svg enable-background="new 0 0 135.81 135.772" viewBox="0 0 135.81 135.772" xmlns="http://www.w3.org/2000/svg">
 <defs>
  <radialGradient id="a" cx="67.92" cy="67.862" r="63.115" gradientUnits="userSpaceOnUse">
   <stop stop-color="#f28888" offset="0"/>
   <stop stop-color="#d82a2a" offset="1"/>
  </radialGradient>
 </defs>
 <path d="m0 67.863c0 34.599 27.14 64.461 61.622 67.631 34.495 3.171 66.772-21.085 73.083-55.199 6.309-34.104-14.978-68.46-48.403-77.834-33.437-9.378-69.567 8.828-81.897 41.286-2.92 7.687-4.405 15.893-4.405 24.116" fill="#970f00"/>
 <path d="m4.804 67.863c0 34.395 28.719 63.115 63.115 63.115s63.116-28.72 63.116-63.115-28.72-63.116-63.116-63.116-63.115 28.719-63.115 63.116" fill="url(#a)"/>
 <path d="m10.891 43.33c-5.1 29.726 12.654 59.582 41.202 69.309 30.278 10.318 64.349-4.932 77.011-34.26-6.084 35.493-42.578 58.827-77.351 49.442-35.903-9.689-55.66-50.259-40.862-84.491" fill="#b20d0d"/>
 <path d="m28.499,39.845c8.729,1.805 18.779-10.56 26.347-13.707 14.14-5.876 31.802-3.146 44.611,4.856 13.55,8.466 23.188,24.727 24.67,40.689 .005.046.005.053.001.024-1-9.667-.325-18.754-4.006-28.096-6.099-15.488-19.29-27.615-35.192-32.488-16.443-5.039-34.424-1.832-48.59,7.768-4.374,2.966-21.211,18.188-7.841,20.954" fill="#ef5656"/>
 <path d="m105.449,85.473c-5.623-5.622-11.246-11.245-16.868-16.87-1.503-1.503 12.323-13.721 14.319-15.717 7.668-7.671.39-12.376-5.665-18.431-2.85-2.848-6.832-7.404-10.95-3.286-3.038,1.911-5.73,5.731-8.257,8.257-2.997,2.997-5.994,5.994-8.991,8.993-.717.717-4.819-4.182-5.51-4.874-4.094-4.094-13.938-18.475-20.481-11.935-3.942,3.94-16.97,12.818-10.744,19.045l17.25,17.25c-4.596,4.594-24.237,18.569-17.129,25.675 3.683,3.681 7.755,9.715 12.468,12.075 5.366,2.684 11.375-6.134 14.516-9.274 1.454-1.454 8.466-10.155 10.008-8.612l14.321,14.321c4.524,4.523 7.966,4.795 12.61.15 3.387-3.387 14.661-11.218 9.103-16.767" fill="#fff"/>
 <path d="m47.314,28.939c-4.432,0-8.753,6.244-11.542,9.032-3.562,3.562-9.015,8.048-3.894,13.168 3.525,3.525 7.05,7.052 10.577,10.579 2.586,2.585 7.481,4.89 4.503,7.865-4.685,4.688-22.354,17.082-14.989,24.451l10.108,10.108c4.631,4.631 8.562,1.91 12.281-1.808l11.938-11.937c3.588-3.586 4.155-.684 7.575,2.736 3.733,3.731 7.467,7.463 11.198,11.196 4.87,4.871 8.912,1.183 12.622-2.526 2.864-2.861 7.924-6.298 9.531-10.177 2.192-5.292-4.755-10.05-7.932-13.228-3.437-3.433-6.868-6.864-10.303-10.299-.411-.411 8.378-8.773 9.227-9.622 3.609-3.609 13.422-10.526 7.69-16.267-2.744-4.082-7.573-7.572-11.062-11.059-7.606-7.603-21.249,11.781-26.128,16.671l-10.499-10.495c-2.694-2.695-6.633-8.341-10.901-8.388m-3.375,75.243c-4.634-4.633-17.099-12.654-10.353-19.402 2.194-2.195 17.624-16.127 16.208-17.54l-10.409-10.411c-2.372-2.373-8.343-6.485-8.343-10.327 0-3.947 6.2-8.181 8.653-10.633 2.969-2.967 6.924-8.312 11.298-3.94 1.706,1.706 17.645,17.799 17.802,17.642 5.612-5.612 11.313-13.639 17.944-17.944 4.365-4.359 9.224,2.469 12,5.243 2.848,2.85 10.823,8.436 6.254,13.011-4.306,6.634-12.334,12.334-17.947,17.948-.024.025-.051.051-.077.077 5.64,5.64 13.694,11.361 18.024,18.023 4.577,4.568-3.408,10.163-6.254,13.011-3.092,3.092-7.644,9.6-12.303,4.938-2.348-2.348-16.979-18.46-18.385-17.054-3.655,3.655-18.307,23.185-24.112,17.358" fill="#970f00"/>
</svg>
