<?xml version="1.0" encoding="UTF-8"?>
<svg version="1.1" viewBox="0 0 31 31" xmlns="http://www.w3.org/2000/svg">
 <defs>
  <filter id="c" x="-.36" y="-.36" width="1.72" height="1.72" color-interpolation-filters="sRGB">
   <feGaussianBlur stdDeviation="2.46429"/>
  </filter>
  <linearGradient id="d" x1="131.75" x2="111.82" y1="738.97" y2="716.11" gradientTransform="matrix(.90129 0 0 .90129 -94.091 -639.8)" gradientUnits="userSpaceOnUse">
   <stop stop-color="#bb2c29" offset="0"/>
   <stop stop-color="#f55d4f" offset="1"/>
  </linearGradient>
 </defs>
 <path d="m29.836 15.602a14.324 14.324 0 0 1 -28.648 0 14.324 14.324 0 1 1 28.648 0z" fill="url(#d)" fill-rule="evenodd" stroke="#7b0000" stroke-width="1.5"/>
 <path transform="matrix(1.2579 0 0 1.1774 -129.32 -835.71)" d="m122.14 721.65a8.2143 8.2143 0 1 1 -16.429 0 8.2143 8.2143 0 1 1 16.429 0z" fill="#ff1300" fill-opacity=".75" fill-rule="evenodd" filter="url(#c)"/>
 <g transform="matrix(1.0369 0 0 .74134 -1.1442 4.3453)">
  <rect x="5.4263" y="11.531" width="21" height="6.6824" ry="1.2258" opacity=".40426"/>
  <rect x="5.6785" y="11.88" width="21" height="6.6824" ry="1.2258" fill="#fff"/>
 </g>
</svg>
