<?xml version="1.0" encoding="utf-8"?>
<!-- Generator: Adobe Illustrator 24.1.2, SVG Export Plug-In . SVG Version: 6.00 Build 0)  -->
<svg version="1.1" id="Layer_1" xmlns="http://www.w3.org/2000/svg" xmlns:xlink="http://www.w3.org/1999/xlink" x="0px" y="0px"
	 viewBox="0 0 1280 1024" style="enable-background:new 0 0 1280 1024;" xml:space="preserve">
<style type="text/css">
	.st0{opacity:0.2;}
	.st1{fill:#FFFFFF;}
</style>
<g class="st0">
	<path class="st1" d="M959.6,418.5L794.8,564.4c-6.8,6-17.2,5.4-23.3-1.4l-312-352.2c-6-6.8-5.4-17.2,1.4-23.3L625.8,41.6
		c6.8-6,17.2-5.4,23.3,1.4l312,352.2C967,402.1,966.4,412.5,959.6,418.5z"/>
</g>
<g class="st0">
	<path class="st1" d="M657.5,815.9L506,950.1c-6.8,6-17.2,5.4-23.3-1.4L365.4,816.1c-6-6.8-5.4-17.2,1.4-23.3l151.5-134.2
		c6.8-6,17.2-5.4,23.3,1.4L659,792.5C665,799.4,664.3,809.9,657.5,815.9z"/>
</g>
<g class="st0">
	<path class="st1" d="M509.7,538.9l-678.2,600.7c-6.8,6-17.2,5.4-23.3-1.4L-688,578c-6-6.8-5.4-17.2,1.4-23.3L-8.4-46
		c6.8-6,17.2-5.4,23.3,1.4l496.2,560.2C517.1,522.5,516.5,532.9,509.7,538.9z"/>
</g>
<g class="st0">
	<path class="st1" d="M1465.5,533.1L636,1267.8c-6.8,6-17.2,5.4-23.3-1.4l-117.4-132.5c-6-6.8-5.4-17.2,1.4-23.3L1326.3,376
		c6.8-6,17.2-5.4,23.3,1.4L1467,509.9C1473,516.7,1472.3,527.1,1465.5,533.1z"/>
</g>
<g class="st0">
	<path class="st1" d="M1441.1-10.9l-388.7,344.3c-6.8,6-17.2,5.4-23.3-1.4L911.8,199.4c-6-6.8-5.4-17.2,1.4-23.3l388.7-344.3
		c6.8-6,17.2-5.4,23.3,1.4l117.4,132.5C1448.6-27.4,1448-17,1441.1-10.9z"/>
</g>
</svg>
